<svg xmlns="http://www.w3.org/2000/svg" xmlns:xlink="http://www.w3.org/1999/xlink" viewBox="0 0 640 640" width="640" height="640"><defs>
  <radialGradient id="bg" cx="50%" cy="42%" r="72%">
    <stop offset="0%" stop-color="#141019"/><stop offset="55%" stop-color="#0a0710"/><stop offset="100%" stop-color="#050409"/>
  </radialGradient>
  <radialGradient id="parch" cx="46%" cy="40%" r="70%">
    <stop offset="0%" stop-color="#efe4cb"/><stop offset="70%" stop-color="#e3d3b0"/><stop offset="100%" stop-color="#c9b488"/>
  </radialGradient>
  <linearGradient id="gold" x1="0" y1="0" x2="0" y2="1">
    <stop offset="0%" stop-color="#ffe9b0"/><stop offset="48%" stop-color="#e9b45c"/><stop offset="100%" stop-color="#b07d2e"/>
  </linearGradient>
  <linearGradient id="leaf" x1="0" y1="0" x2="1" y2="0">
    <stop offset="0%" stop-color="#d9ad57"/><stop offset="100%" stop-color="#9c7328"/>
  </linearGradient>
  <linearGradient id="stone" x1="0" y1="0" x2="1" y2="0">
    <stop offset="0%" stop-color="#4b4034"/><stop offset="35%" stop-color="#2c251d"/><stop offset="100%" stop-color="#181410"/>
  </linearGradient>
  <linearGradient id="fire" x1="0" y1="1" x2="0" y2="0">
    <stop offset="0%" stop-color="#b52a06"/><stop offset="50%" stop-color="#f0721a"/><stop offset="100%" stop-color="#ffd873"/>
  </linearGradient>
  <radialGradient id="glow" cx="50%" cy="50%" r="50%">
    <stop offset="0%" stop-color="#ff7a28" stop-opacity="0.5"/><stop offset="100%" stop-color="#c23a08" stop-opacity="0"/>
  </radialGradient>
</defs><rect width="640" height="640" fill="url(#bg)"/><g transform="translate(413.7,531.8) rotate(-6.0)"><ellipse rx="19" ry="6.6" fill="url(#leaf)"/><ellipse rx="19" ry="6.6" fill="none" stroke="#7a5a24" stroke-width="0.6" opacity="0.5"/></g><g transform="translate(446.9,515.4) rotate(-14.5)"><ellipse rx="19" ry="6.6" fill="url(#leaf)"/><ellipse rx="19" ry="6.6" fill="none" stroke="#7a5a24" stroke-width="0.6" opacity="0.5"/></g><g transform="translate(477.3,494.3) rotate(-23.0)"><ellipse rx="19" ry="6.6" fill="url(#leaf)"/><ellipse rx="19" ry="6.6" fill="none" stroke="#7a5a24" stroke-width="0.6" opacity="0.5"/></g><g transform="translate(504.3,468.9) rotate(-31.5)"><ellipse rx="19" ry="6.6" fill="url(#leaf)"/><ellipse rx="19" ry="6.6" fill="none" stroke="#7a5a24" stroke-width="0.6" opacity="0.5"/></g><g transform="translate(527.3,439.8) rotate(-40.0)"><ellipse rx="19" ry="6.6" fill="url(#leaf)"/><ellipse rx="19" ry="6.6" fill="none" stroke="#7a5a24" stroke-width="0.6" opacity="0.5"/></g><g transform="translate(545.6,407.6) rotate(-48.5)"><ellipse rx="19" ry="6.6" fill="url(#leaf)"/><ellipse rx="19" ry="6.6" fill="none" stroke="#7a5a24" stroke-width="0.6" opacity="0.5"/></g><g transform="translate(559.1,373.1) rotate(-57.0)"><ellipse rx="19" ry="6.6" fill="url(#leaf)"/><ellipse rx="19" ry="6.6" fill="none" stroke="#7a5a24" stroke-width="0.6" opacity="0.5"/></g><g transform="translate(567.3,337.0) rotate(-65.5)"><ellipse rx="19" ry="6.6" fill="url(#leaf)"/><ellipse rx="19" ry="6.6" fill="none" stroke="#7a5a24" stroke-width="0.6" opacity="0.5"/></g><g transform="translate(570.0,300.0) rotate(-74.0)"><ellipse rx="19" ry="6.6" fill="url(#leaf)"/><ellipse rx="19" ry="6.6" fill="none" stroke="#7a5a24" stroke-width="0.6" opacity="0.5"/></g><g transform="translate(567.3,263.0) rotate(-82.5)"><ellipse rx="19" ry="6.6" fill="url(#leaf)"/><ellipse rx="19" ry="6.6" fill="none" stroke="#7a5a24" stroke-width="0.6" opacity="0.5"/></g><g transform="translate(559.1,226.9) rotate(-91.0)"><ellipse rx="19" ry="6.6" fill="url(#leaf)"/><ellipse rx="19" ry="6.6" fill="none" stroke="#7a5a24" stroke-width="0.6" opacity="0.5"/></g><g transform="translate(545.6,192.4) rotate(-99.5)"><ellipse rx="19" ry="6.6" fill="url(#leaf)"/><ellipse rx="19" ry="6.6" fill="none" stroke="#7a5a24" stroke-width="0.6" opacity="0.5"/></g><g transform="translate(527.3,160.2) rotate(-108.0)"><ellipse rx="19" ry="6.6" fill="url(#leaf)"/><ellipse rx="19" ry="6.6" fill="none" stroke="#7a5a24" stroke-width="0.6" opacity="0.5"/></g><g transform="translate(504.3,131.1) rotate(-116.5)"><ellipse rx="19" ry="6.6" fill="url(#leaf)"/><ellipse rx="19" ry="6.6" fill="none" stroke="#7a5a24" stroke-width="0.6" opacity="0.5"/></g><g transform="translate(477.3,105.7) rotate(-125.0)"><ellipse rx="19" ry="6.6" fill="url(#leaf)"/><ellipse rx="19" ry="6.6" fill="none" stroke="#7a5a24" stroke-width="0.6" opacity="0.5"/></g><g transform="translate(446.9,84.6) rotate(-133.5)"><ellipse rx="19" ry="6.6" fill="url(#leaf)"/><ellipse rx="19" ry="6.6" fill="none" stroke="#7a5a24" stroke-width="0.6" opacity="0.5"/></g><g transform="translate(413.7,68.2) rotate(-142.0)"><ellipse rx="19" ry="6.6" fill="url(#leaf)"/><ellipse rx="19" ry="6.6" fill="none" stroke="#7a5a24" stroke-width="0.6" opacity="0.5"/></g><g transform="translate(378.4,56.9) rotate(-150.5)"><ellipse rx="19" ry="6.6" fill="url(#leaf)"/><ellipse rx="19" ry="6.6" fill="none" stroke="#7a5a24" stroke-width="0.6" opacity="0.5"/></g><g transform="translate(226.3,531.8) rotate(6.0)"><ellipse rx="19" ry="6.6" fill="url(#leaf)"/><ellipse rx="19" ry="6.6" fill="none" stroke="#7a5a24" stroke-width="0.6" opacity="0.5"/></g><g transform="translate(193.1,515.4) rotate(14.5)"><ellipse rx="19" ry="6.6" fill="url(#leaf)"/><ellipse rx="19" ry="6.6" fill="none" stroke="#7a5a24" stroke-width="0.6" opacity="0.5"/></g><g transform="translate(162.7,494.3) rotate(23.0)"><ellipse rx="19" ry="6.6" fill="url(#leaf)"/><ellipse rx="19" ry="6.6" fill="none" stroke="#7a5a24" stroke-width="0.6" opacity="0.5"/></g><g transform="translate(135.7,468.9) rotate(31.5)"><ellipse rx="19" ry="6.6" fill="url(#leaf)"/><ellipse rx="19" ry="6.6" fill="none" stroke="#7a5a24" stroke-width="0.6" opacity="0.5"/></g><g transform="translate(112.7,439.8) rotate(40.0)"><ellipse rx="19" ry="6.6" fill="url(#leaf)"/><ellipse rx="19" ry="6.6" fill="none" stroke="#7a5a24" stroke-width="0.6" opacity="0.5"/></g><g transform="translate(94.4,407.6) rotate(48.5)"><ellipse rx="19" ry="6.6" fill="url(#leaf)"/><ellipse rx="19" ry="6.6" fill="none" stroke="#7a5a24" stroke-width="0.6" opacity="0.5"/></g><g transform="translate(80.9,373.1) rotate(57.0)"><ellipse rx="19" ry="6.6" fill="url(#leaf)"/><ellipse rx="19" ry="6.6" fill="none" stroke="#7a5a24" stroke-width="0.6" opacity="0.5"/></g><g transform="translate(72.7,337.0) rotate(65.5)"><ellipse rx="19" ry="6.6" fill="url(#leaf)"/><ellipse rx="19" ry="6.6" fill="none" stroke="#7a5a24" stroke-width="0.6" opacity="0.5"/></g><g transform="translate(70.0,300.0) rotate(74.0)"><ellipse rx="19" ry="6.6" fill="url(#leaf)"/><ellipse rx="19" ry="6.6" fill="none" stroke="#7a5a24" stroke-width="0.6" opacity="0.5"/></g><g transform="translate(72.7,263.0) rotate(82.5)"><ellipse rx="19" ry="6.6" fill="url(#leaf)"/><ellipse rx="19" ry="6.6" fill="none" stroke="#7a5a24" stroke-width="0.6" opacity="0.5"/></g><g transform="translate(80.9,226.9) rotate(91.0)"><ellipse rx="19" ry="6.6" fill="url(#leaf)"/><ellipse rx="19" ry="6.6" fill="none" stroke="#7a5a24" stroke-width="0.6" opacity="0.5"/></g><g transform="translate(94.4,192.4) rotate(99.5)"><ellipse rx="19" ry="6.6" fill="url(#leaf)"/><ellipse rx="19" ry="6.6" fill="none" stroke="#7a5a24" stroke-width="0.6" opacity="0.5"/></g><g transform="translate(112.7,160.2) rotate(108.0)"><ellipse rx="19" ry="6.6" fill="url(#leaf)"/><ellipse rx="19" ry="6.6" fill="none" stroke="#7a5a24" stroke-width="0.6" opacity="0.5"/></g><g transform="translate(135.7,131.1) rotate(116.5)"><ellipse rx="19" ry="6.6" fill="url(#leaf)"/><ellipse rx="19" ry="6.6" fill="none" stroke="#7a5a24" stroke-width="0.6" opacity="0.5"/></g><g transform="translate(162.7,105.7) rotate(125.0)"><ellipse rx="19" ry="6.6" fill="url(#leaf)"/><ellipse rx="19" ry="6.6" fill="none" stroke="#7a5a24" stroke-width="0.6" opacity="0.5"/></g><g transform="translate(193.1,84.6) rotate(133.5)"><ellipse rx="19" ry="6.6" fill="url(#leaf)"/><ellipse rx="19" ry="6.6" fill="none" stroke="#7a5a24" stroke-width="0.6" opacity="0.5"/></g><g transform="translate(226.3,68.2) rotate(142.0)"><ellipse rx="19" ry="6.6" fill="url(#leaf)"/><ellipse rx="19" ry="6.6" fill="none" stroke="#7a5a24" stroke-width="0.6" opacity="0.5"/></g><g transform="translate(261.6,56.9) rotate(150.5)"><ellipse rx="19" ry="6.6" fill="url(#leaf)"/><ellipse rx="19" ry="6.6" fill="none" stroke="#7a5a24" stroke-width="0.6" opacity="0.5"/></g><circle cx="320" cy="48" r="9" fill="url(#gold)"/><path d="M312,52 q-26,10 -40,30 l14,4 q16,-18 32,-24 z" fill="url(#gold)" opacity="0.9"/><path d="M328,52 q26,10 40,30 l-14,4 q-16,-18 -32,-24 z" fill="url(#gold)" opacity="0.9"/><clipPath id="plate"><circle cx="320" cy="300" r="214"/></clipPath><g clip-path="url(#plate)"><circle cx="320" cy="300" r="214" fill="url(#parch)"/><path d="M296.1,263.7 L428.1,271.6 L295.9,268.9 Z" fill="#1a140e" opacity="0.16"/><path d="M296.0,266.7 L489.9,306.3 L295.7,268.4 Z" fill="#1a140e" opacity="0.09"/><path d="M296.0,267.4 L422.2,315.6 L295.0,270.2 Z" fill="#1a140e" opacity="0.09"/><path d="M295.4,269.1 L469.2,367.6 L294.5,270.7 Z" fill="#1a140e" opacity="0.09"/><path d="M295.9,268.9 L404.9,358.3 L292.7,273.0 Z" fill="#1a140e" opacity="0.16"/><path d="M294.1,271.3 L417.4,406.2 L292.8,272.5 Z" fill="#1a140e" opacity="0.09"/><path d="M293.7,271.8 L363.0,378.4 L291.2,273.5 Z" fill="#1a140e" opacity="0.09"/><path d="M292.2,272.9 L377.9,461.4 L290.5,273.6 Z" fill="#1a140e" opacity="0.09"/><path d="M292.7,273.0 L326.1,401.4 L287.7,274.4 Z" fill="#1a140e" opacity="0.16"/><path d="M289.8,273.8 L310.9,460.8 L288.0,274.1 Z" fill="#1a140e" opacity="0.09"/><path d="M289.2,274.1 L281.7,423.1 L286.2,273.9 Z" fill="#1a140e" opacity="0.09"/><path d="M287.3,274.0 L248.1,465.6 L285.6,273.7 Z" fill="#1a140e" opacity="0.09"/><path d="M287.7,274.4 L234.7,410.1 L282.8,272.6 Z" fill="#1a140e" opacity="0.16"/><path d="M284.9,273.4 L188.3,443.7 L283.3,272.5 Z" fill="#1a140e" opacity="0.09"/><path d="M284.2,273.2 L195.6,383.1 L281.9,271.3 Z" fill="#1a140e" opacity="0.09"/><path d="M282.7,272.1 L145.8,397.2 L281.5,270.8 Z" fill="#1a140e" opacity="0.09"/><path d="M282.8,272.6 L164.0,348.7 L279.9,268.3 Z" fill="#1a140e" opacity="0.16"/><path d="M281.1,270.2 L91.7,356.3 L280.4,268.5 Z" fill="#1a140e" opacity="0.09"/><path d="M280.7,269.6 L146.9,305.7 L279.9,266.7 Z" fill="#1a140e" opacity="0.09"/><path d="M280.2,267.8 L77.4,290.8 L279.9,266.0 Z" fill="#1a140e" opacity="0.09"/><path d="M279.9,268.3 L138.2,260.0 L280.1,263.1 Z" fill="#1a140e" opacity="0.16"/><path d="M280.0,265.3 L100.9,228.6 L280.3,263.6 Z" fill="#1a140e" opacity="0.09"/><path d="M280.0,264.6 L145.6,213.3 L281.0,261.8 Z" fill="#1a140e" opacity="0.09"/><path d="M280.6,262.9 L107.2,164.6 L281.5,261.3 Z" fill="#1a140e" opacity="0.09"/><path d="M280.1,263.1 L176.9,178.3 L283.3,259.0 Z" fill="#1a140e" opacity="0.16"/><path d="M281.9,260.7 L159.3,126.6 L283.2,259.5 Z" fill="#1a140e" opacity="0.09"/><path d="M282.3,260.2 L202.4,137.7 L284.8,258.5 Z" fill="#1a140e" opacity="0.09"/><path d="M283.8,259.1 L202.9,81.0 L285.5,258.4 Z" fill="#1a140e" opacity="0.09"/><path d="M283.3,259.0 L247.1,120.7 L288.3,257.6 Z" fill="#1a140e" opacity="0.16"/><path d="M286.2,258.2 L262.7,51.1 L288.0,257.9 Z" fill="#1a140e" opacity="0.09"/><path d="M286.8,257.9 L294.0,115.3 L289.8,258.1 Z" fill="#1a140e" opacity="0.09"/><path d="M288.7,258.0 L330.6,52.5 L290.4,258.3 Z" fill="#1a140e" opacity="0.09"/><path d="M288.3,257.6 L337.8,131.2 L293.2,259.4 Z" fill="#1a140e" opacity="0.16"/><path d="M291.1,258.6 L392.7,79.4 L292.7,259.5 Z" fill="#1a140e" opacity="0.09"/><path d="M291.8,258.8 L377.7,152.3 L294.1,260.7 Z" fill="#1a140e" opacity="0.09"/><path d="M293.3,259.9 L448.3,118.0 L294.5,261.2 Z" fill="#1a140e" opacity="0.09"/><path d="M293.2,259.4 L416.6,180.2 L296.1,263.7 Z" fill="#1a140e" opacity="0.16"/><path d="M294.9,261.8 L462.3,185.8 L295.6,263.5 Z" fill="#1a140e" opacity="0.09"/><path d="M295.3,262.4 L420.7,228.7 L296.1,265.3 Z" fill="#1a140e" opacity="0.09"/><path d="M295.8,264.2 L482.2,243.2 L296.1,266.0 Z" fill="#1a140e" opacity="0.09"/><line x1="-62" y1="346" x2="106" y2="514" stroke="#1a140e" stroke-width="1" opacity="0.12"/><line x1="-53" y1="346" x2="115" y2="514" stroke="#1a140e" stroke-width="1" opacity="0.12"/><line x1="-44" y1="346" x2="124" y2="514" stroke="#1a140e" stroke-width="1" opacity="0.12"/><line x1="-35" y1="346" x2="133" y2="514" stroke="#1a140e" stroke-width="1" opacity="0.12"/><line x1="-26" y1="346" x2="142" y2="514" stroke="#1a140e" stroke-width="1" opacity="0.12"/><line x1="-17" y1="346" x2="151" y2="514" stroke="#1a140e" stroke-width="1" opacity="0.12"/><line x1="-8" y1="346" x2="160" y2="514" stroke="#1a140e" stroke-width="1" opacity="0.12"/><line x1="1" y1="346" x2="169" y2="514" stroke="#1a140e" stroke-width="1" opacity="0.12"/><line x1="10" y1="346" x2="178" y2="514" stroke="#1a140e" stroke-width="1" opacity="0.12"/><line x1="19" y1="346" x2="187" y2="514" stroke="#1a140e" stroke-width="1" opacity="0.12"/><line x1="28" y1="346" x2="196" y2="514" stroke="#1a140e" stroke-width="1" opacity="0.12"/><line x1="37" y1="346" x2="205" y2="514" stroke="#1a140e" stroke-width="1" opacity="0.12"/><line x1="46" y1="346" x2="214" y2="514" stroke="#1a140e" stroke-width="1" opacity="0.12"/><line x1="55" y1="346" x2="223" y2="514" stroke="#1a140e" stroke-width="1" opacity="0.12"/><line x1="64" y1="346" x2="232" y2="514" stroke="#1a140e" stroke-width="1" opacity="0.12"/><line x1="73" y1="346" x2="241" y2="514" stroke="#1a140e" stroke-width="1" opacity="0.12"/><line x1="82" y1="346" x2="250" y2="514" stroke="#1a140e" stroke-width="1" opacity="0.12"/><line x1="91" y1="346" x2="259" y2="514" stroke="#1a140e" stroke-width="1" opacity="0.12"/><line x1="100" y1="346" x2="268" y2="514" stroke="#1a140e" stroke-width="1" opacity="0.12"/><line x1="109" y1="346" x2="277" y2="514" stroke="#1a140e" stroke-width="1" opacity="0.12"/><line x1="118" y1="346" x2="286" y2="514" stroke="#1a140e" stroke-width="1" opacity="0.12"/><line x1="127" y1="346" x2="295" y2="514" stroke="#1a140e" stroke-width="1" opacity="0.12"/><line x1="136" y1="346" x2="304" y2="514" stroke="#1a140e" stroke-width="1" opacity="0.12"/><line x1="145" y1="346" x2="313" y2="514" stroke="#1a140e" stroke-width="1" opacity="0.12"/><line x1="154" y1="346" x2="322" y2="514" stroke="#1a140e" stroke-width="1" opacity="0.12"/><line x1="163" y1="346" x2="331" y2="514" stroke="#1a140e" stroke-width="1" opacity="0.12"/><line x1="172" y1="346" x2="340" y2="514" stroke="#1a140e" stroke-width="1" opacity="0.12"/><line x1="181" y1="346" x2="349" y2="514" stroke="#1a140e" stroke-width="1" opacity="0.12"/><line x1="190" y1="346" x2="358" y2="514" stroke="#1a140e" stroke-width="1" opacity="0.12"/><line x1="199" y1="346" x2="367" y2="514" stroke="#1a140e" stroke-width="1" opacity="0.12"/><line x1="208" y1="346" x2="376" y2="514" stroke="#1a140e" stroke-width="1" opacity="0.12"/><line x1="217" y1="346" x2="385" y2="514" stroke="#1a140e" stroke-width="1" opacity="0.12"/><line x1="226" y1="346" x2="394" y2="514" stroke="#1a140e" stroke-width="1" opacity="0.12"/><line x1="235" y1="346" x2="403" y2="514" stroke="#1a140e" stroke-width="1" opacity="0.12"/><line x1="244" y1="346" x2="412" y2="514" stroke="#1a140e" stroke-width="1" opacity="0.12"/><line x1="253" y1="346" x2="421" y2="514" stroke="#1a140e" stroke-width="1" opacity="0.12"/><line x1="262" y1="346" x2="430" y2="514" stroke="#1a140e" stroke-width="1" opacity="0.12"/><line x1="271" y1="346" x2="439" y2="514" stroke="#1a140e" stroke-width="1" opacity="0.12"/><line x1="280" y1="346" x2="448" y2="514" stroke="#1a140e" stroke-width="1" opacity="0.12"/><line x1="289" y1="346" x2="457" y2="514" stroke="#1a140e" stroke-width="1" opacity="0.12"/><line x1="298" y1="346" x2="466" y2="514" stroke="#1a140e" stroke-width="1" opacity="0.12"/><line x1="307" y1="346" x2="475" y2="514" stroke="#1a140e" stroke-width="1" opacity="0.12"/><line x1="316" y1="346" x2="484" y2="514" stroke="#1a140e" stroke-width="1" opacity="0.12"/><line x1="325" y1="346" x2="493" y2="514" stroke="#1a140e" stroke-width="1" opacity="0.12"/><line x1="334" y1="346" x2="502" y2="514" stroke="#1a140e" stroke-width="1" opacity="0.12"/><line x1="343" y1="346" x2="511" y2="514" stroke="#1a140e" stroke-width="1" opacity="0.12"/><line x1="352" y1="346" x2="520" y2="514" stroke="#1a140e" stroke-width="1" opacity="0.12"/><line x1="361" y1="346" x2="529" y2="514" stroke="#1a140e" stroke-width="1" opacity="0.12"/><line x1="370" y1="346" x2="538" y2="514" stroke="#1a140e" stroke-width="1" opacity="0.12"/><line x1="379" y1="346" x2="547" y2="514" stroke="#1a140e" stroke-width="1" opacity="0.12"/><line x1="388" y1="346" x2="556" y2="514" stroke="#1a140e" stroke-width="1" opacity="0.12"/><line x1="397" y1="346" x2="565" y2="514" stroke="#1a140e" stroke-width="1" opacity="0.12"/><line x1="406" y1="346" x2="574" y2="514" stroke="#1a140e" stroke-width="1" opacity="0.12"/><line x1="415" y1="346" x2="583" y2="514" stroke="#1a140e" stroke-width="1" opacity="0.12"/><line x1="424" y1="346" x2="592" y2="514" stroke="#1a140e" stroke-width="1" opacity="0.12"/><line x1="433" y1="346" x2="601" y2="514" stroke="#1a140e" stroke-width="1" opacity="0.12"/><line x1="442" y1="346" x2="610" y2="514" stroke="#1a140e" stroke-width="1" opacity="0.12"/><line x1="451" y1="346" x2="619" y2="514" stroke="#1a140e" stroke-width="1" opacity="0.12"/><line x1="460" y1="346" x2="628" y2="514" stroke="#1a140e" stroke-width="1" opacity="0.12"/><line x1="469" y1="346" x2="637" y2="514" stroke="#1a140e" stroke-width="1" opacity="0.12"/><line x1="478" y1="346" x2="646" y2="514" stroke="#1a140e" stroke-width="1" opacity="0.12"/><line x1="487" y1="346" x2="655" y2="514" stroke="#1a140e" stroke-width="1" opacity="0.12"/><line x1="496" y1="346" x2="664" y2="514" stroke="#1a140e" stroke-width="1" opacity="0.12"/><line x1="505" y1="346" x2="673" y2="514" stroke="#1a140e" stroke-width="1" opacity="0.12"/><line x1="514" y1="346" x2="682" y2="514" stroke="#1a140e" stroke-width="1" opacity="0.12"/><line x1="523" y1="346" x2="691" y2="514" stroke="#1a140e" stroke-width="1" opacity="0.12"/><line x1="532" y1="346" x2="700" y2="514" stroke="#1a140e" stroke-width="1" opacity="0.12"/><circle cx="386" cy="258" r="78" fill="none" stroke="#1a140e" stroke-width="1.2" opacity="0.28"/><line x1="341" y1="267" x2="331" y2="273" stroke="#1a140e" stroke-width="1.4" opacity="0.8"/><line x1="341" y1="267" x2="338" y2="254" stroke="#1a140e" stroke-width="1.4" opacity="0.8"/><line x1="424" y1="240" x2="428" y2="262" stroke="#1a140e" stroke-width="1.4" opacity="0.8"/><line x1="424" y1="240" x2="450" y2="250" stroke="#1a140e" stroke-width="1.4" opacity="0.8"/><line x1="338" y1="254" x2="331" y2="273" stroke="#1a140e" stroke-width="1.4" opacity="0.8"/><line x1="404" y1="289" x2="398" y2="281" stroke="#1a140e" stroke-width="1.4" opacity="0.8"/><line x1="404" y1="289" x2="399" y2="272" stroke="#1a140e" stroke-width="1.4" opacity="0.8"/><line x1="347" y1="223" x2="358" y2="224" stroke="#1a140e" stroke-width="1.4" opacity="0.8"/><line x1="347" y1="223" x2="338" y2="254" stroke="#1a140e" stroke-width="1.4" opacity="0.8"/><line x1="416" y1="272" x2="428" y2="262" stroke="#1a140e" stroke-width="1.4" opacity="0.8"/><line x1="416" y1="272" x2="399" y2="272" stroke="#1a140e" stroke-width="1.4" opacity="0.8"/><line x1="435" y1="281" x2="428" y2="262" stroke="#1a140e" stroke-width="1.4" opacity="0.8"/><line x1="435" y1="281" x2="416" y2="272" stroke="#1a140e" stroke-width="1.4" opacity="0.8"/><line x1="377" y1="238" x2="361" y2="252" stroke="#1a140e" stroke-width="1.4" opacity="0.8"/><line x1="377" y1="238" x2="358" y2="224" stroke="#1a140e" stroke-width="1.4" opacity="0.8"/><line x1="450" y1="250" x2="428" y2="262" stroke="#1a140e" stroke-width="1.4" opacity="0.8"/><line x1="399" y1="272" x2="398" y2="281" stroke="#1a140e" stroke-width="1.4" opacity="0.8"/><line x1="361" y1="252" x2="338" y2="254" stroke="#1a140e" stroke-width="1.4" opacity="0.8"/><line x1="331" y1="273" x2="328" y2="290" stroke="#1a140e" stroke-width="1.4" opacity="0.8"/><line x1="328" y1="290" x2="341" y2="267" stroke="#1a140e" stroke-width="1.4" opacity="0.8"/><line x1="356" y1="300" x2="328" y2="290" stroke="#1a140e" stroke-width="1.4" opacity="0.8"/><line x1="356" y1="300" x2="341" y2="267" stroke="#1a140e" stroke-width="1.4" opacity="0.8"/><circle cx="341" cy="267" r="6.5" fill="#e9dcc1"/><circle cx="341" cy="267" r="6.5" fill="none" stroke="#1a140e" stroke-width="1.6"/><line x1="337" y1="265" x2="345" y2="265" stroke="#1a140e" stroke-width="0.8" opacity="0.6"/><circle cx="424" cy="240" r="6.5" fill="#e9dcc1"/><circle cx="424" cy="240" r="6.5" fill="none" stroke="#1a140e" stroke-width="1.6"/><line x1="420" y1="238" x2="428" y2="238" stroke="#1a140e" stroke-width="0.8" opacity="0.6"/><circle cx="338" cy="254" r="6.5" fill="#e9dcc1"/><circle cx="338" cy="254" r="6.5" fill="none" stroke="#1a140e" stroke-width="1.6"/><line x1="334" y1="252" x2="342" y2="252" stroke="#1a140e" stroke-width="0.8" opacity="0.6"/><circle cx="404" cy="289" r="6.5" fill="#e9dcc1"/><circle cx="404" cy="289" r="6.5" fill="none" stroke="#1a140e" stroke-width="1.6"/><line x1="400" y1="287" x2="408" y2="287" stroke="#1a140e" stroke-width="0.8" opacity="0.6"/><circle cx="347" cy="223" r="6.5" fill="#e9dcc1"/><circle cx="347" cy="223" r="6.5" fill="none" stroke="#1a140e" stroke-width="1.6"/><line x1="343" y1="221" x2="351" y2="221" stroke="#1a140e" stroke-width="0.8" opacity="0.6"/><circle cx="416" cy="272" r="6.5" fill="#e9dcc1"/><circle cx="416" cy="272" r="6.5" fill="none" stroke="#1a140e" stroke-width="1.6"/><line x1="412" y1="270" x2="420" y2="270" stroke="#1a140e" stroke-width="0.8" opacity="0.6"/><circle cx="435" cy="281" r="6.5" fill="#e9dcc1"/><circle cx="435" cy="281" r="6.5" fill="none" stroke="#1a140e" stroke-width="1.6"/><line x1="431" y1="279" x2="439" y2="279" stroke="#1a140e" stroke-width="0.8" opacity="0.6"/><circle cx="377" cy="238" r="6.5" fill="#e9dcc1"/><circle cx="377" cy="238" r="6.5" fill="none" stroke="#1a140e" stroke-width="1.6"/><line x1="373" y1="236" x2="381" y2="236" stroke="#1a140e" stroke-width="0.8" opacity="0.6"/><circle cx="450" cy="250" r="6.5" fill="#e9dcc1"/><circle cx="450" cy="250" r="6.5" fill="none" stroke="#1a140e" stroke-width="1.6"/><line x1="446" y1="248" x2="454" y2="248" stroke="#1a140e" stroke-width="0.8" opacity="0.6"/><circle cx="358" cy="224" r="6.5" fill="#e9dcc1"/><circle cx="358" cy="224" r="6.5" fill="none" stroke="#1a140e" stroke-width="1.6"/><line x1="354" y1="222" x2="362" y2="222" stroke="#1a140e" stroke-width="0.8" opacity="0.6"/><circle cx="399" cy="272" r="6.5" fill="#e9dcc1"/><circle cx="399" cy="272" r="6.5" fill="none" stroke="#1a140e" stroke-width="1.6"/><line x1="395" y1="270" x2="403" y2="270" stroke="#1a140e" stroke-width="0.8" opacity="0.6"/><circle cx="361" cy="252" r="6.5" fill="#e9dcc1"/><circle cx="361" cy="252" r="6.5" fill="none" stroke="#1a140e" stroke-width="1.6"/><line x1="357" y1="250" x2="365" y2="250" stroke="#1a140e" stroke-width="0.8" opacity="0.6"/><circle cx="398" cy="281" r="6.5" fill="#e9dcc1"/><circle cx="398" cy="281" r="6.5" fill="none" stroke="#1a140e" stroke-width="1.6"/><line x1="394" y1="279" x2="402" y2="279" stroke="#1a140e" stroke-width="0.8" opacity="0.6"/><circle cx="428" cy="262" r="6.5" fill="#e9dcc1"/><circle cx="428" cy="262" r="6.5" fill="none" stroke="#1a140e" stroke-width="1.6"/><line x1="424" y1="260" x2="432" y2="260" stroke="#1a140e" stroke-width="0.8" opacity="0.6"/><circle cx="331" cy="273" r="6.5" fill="#e9dcc1"/><circle cx="331" cy="273" r="6.5" fill="none" stroke="#1a140e" stroke-width="1.6"/><line x1="327" y1="271" x2="335" y2="271" stroke="#1a140e" stroke-width="0.8" opacity="0.6"/><circle cx="328" cy="290" r="12" fill="url(#fire)"/><circle cx="328" cy="290" r="12" fill="none" stroke="#1a140e" stroke-width="1.5"/><circle cx="356" cy="300" r="6.5" fill="#e9dcc1"/><circle cx="356" cy="300" r="6.5" fill="none" stroke="#1a140e" stroke-width="1.6"/><line x1="352" y1="298" x2="360" y2="298" stroke="#1a140e" stroke-width="0.8" opacity="0.6"/><path d="M218,340 C224,416 356,416 362,340 L348,340 A13,16 0 0 0 322,340 A13,16 0 0 0 296,340 A13,16 0 0 0 270,340 A13,16 0 0 0 244,340 L218,340 Z" fill="#1a140e"/><path d="M220,358 q-24,-6 -32,12 q14,12 34,4 z" fill="#1a140e"/><path d="M236,406 L198,464 L256,464 L296,412 Z" fill="#1a140e"/><path d="M232,370 C272,392 320,392 348,366" stroke="#e9dcc1" stroke-width="1.5" fill="none" opacity="0.5"/><line x1="244" y1="332" x2="244" y2="358" stroke="#e9dcc1" stroke-width="1.2" opacity="0.45"/><line x1="270" y1="332" x2="270" y2="358" stroke="#e9dcc1" stroke-width="1.2" opacity="0.45"/><line x1="296" y1="332" x2="296" y2="358" stroke="#e9dcc1" stroke-width="1.2" opacity="0.45"/><line x1="322" y1="332" x2="322" y2="358" stroke="#e9dcc1" stroke-width="1.2" opacity="0.45"/><path d="M288,262 C315,290 313,328 291,346 C261,334 261,298 280,278 C282,294 291,298 293,286 C297,276 290,268 288,262 Z" fill="url(#fire)"/><path d="M288,262 C315,290 313,328 291,346" stroke="#7a2f08" stroke-width="1.4" fill="none" opacity="0.7"/><ellipse cx="288" cy="306" rx="6.5" ry="14" fill="#fff3d0" opacity="0.85"/><path d="M288,266 Q308,250 328,290" stroke="url(#fire)" stroke-width="2.4" fill="none"/><circle cx="288" cy="266" r="4" fill="#fff3d0"/></g><circle cx="320" cy="300" r="214" fill="none" stroke="#1a140e" stroke-width="3"/><circle cx="320" cy="300" r="207" fill="none" stroke="#1a140e" stroke-width="1"/><line x1="528.0" y1="300.0" x2="533.0" y2="300.0" stroke="#1a140e" stroke-width="1"/><line x1="526.9" y1="321.7" x2="531.8" y2="322.3" stroke="#1a140e" stroke-width="1"/><line x1="523.5" y1="343.2" x2="528.3" y2="344.3" stroke="#1a140e" stroke-width="1"/><line x1="517.8" y1="364.3" x2="522.6" y2="365.8" stroke="#1a140e" stroke-width="1"/><line x1="510.0" y1="384.6" x2="514.6" y2="386.6" stroke="#1a140e" stroke-width="1"/><line x1="500.1" y1="404.0" x2="504.5" y2="406.5" stroke="#1a140e" stroke-width="1"/><line x1="488.3" y1="422.3" x2="492.3" y2="425.2" stroke="#1a140e" stroke-width="1"/><line x1="474.6" y1="439.2" x2="478.3" y2="442.5" stroke="#1a140e" stroke-width="1"/><line x1="459.2" y1="454.6" x2="462.5" y2="458.3" stroke="#1a140e" stroke-width="1"/><line x1="442.3" y1="468.3" x2="445.2" y2="472.3" stroke="#1a140e" stroke-width="1"/><line x1="424.0" y1="480.1" x2="426.5" y2="484.5" stroke="#1a140e" stroke-width="1"/><line x1="404.6" y1="490.0" x2="406.6" y2="494.6" stroke="#1a140e" stroke-width="1"/><line x1="384.3" y1="497.8" x2="385.8" y2="502.6" stroke="#1a140e" stroke-width="1"/><line x1="363.2" y1="503.5" x2="364.3" y2="508.3" stroke="#1a140e" stroke-width="1"/><line x1="341.7" y1="506.9" x2="342.3" y2="511.8" stroke="#1a140e" stroke-width="1"/><line x1="320.0" y1="508.0" x2="320.0" y2="513.0" stroke="#1a140e" stroke-width="1"/><line x1="298.3" y1="506.9" x2="297.7" y2="511.8" stroke="#1a140e" stroke-width="1"/><line x1="276.8" y1="503.5" x2="275.7" y2="508.3" stroke="#1a140e" stroke-width="1"/><line x1="255.7" y1="497.8" x2="254.2" y2="502.6" stroke="#1a140e" stroke-width="1"/><line x1="235.4" y1="490.0" x2="233.4" y2="494.6" stroke="#1a140e" stroke-width="1"/><line x1="216.0" y1="480.1" x2="213.5" y2="484.5" stroke="#1a140e" stroke-width="1"/><line x1="197.7" y1="468.3" x2="194.8" y2="472.3" stroke="#1a140e" stroke-width="1"/><line x1="180.8" y1="454.6" x2="177.5" y2="458.3" stroke="#1a140e" stroke-width="1"/><line x1="165.4" y1="439.2" x2="161.7" y2="442.5" stroke="#1a140e" stroke-width="1"/><line x1="151.7" y1="422.3" x2="147.7" y2="425.2" stroke="#1a140e" stroke-width="1"/><line x1="139.9" y1="404.0" x2="135.5" y2="406.5" stroke="#1a140e" stroke-width="1"/><line x1="130.0" y1="384.6" x2="125.4" y2="386.6" stroke="#1a140e" stroke-width="1"/><line x1="122.2" y1="364.3" x2="117.4" y2="365.8" stroke="#1a140e" stroke-width="1"/><line x1="116.5" y1="343.2" x2="111.7" y2="344.3" stroke="#1a140e" stroke-width="1"/><line x1="113.1" y1="321.7" x2="108.2" y2="322.3" stroke="#1a140e" stroke-width="1"/><line x1="112.0" y1="300.0" x2="107.0" y2="300.0" stroke="#1a140e" stroke-width="1"/><line x1="113.1" y1="278.3" x2="108.2" y2="277.7" stroke="#1a140e" stroke-width="1"/><line x1="116.5" y1="256.8" x2="111.7" y2="255.7" stroke="#1a140e" stroke-width="1"/><line x1="122.2" y1="235.7" x2="117.4" y2="234.2" stroke="#1a140e" stroke-width="1"/><line x1="130.0" y1="215.4" x2="125.4" y2="213.4" stroke="#1a140e" stroke-width="1"/><line x1="139.9" y1="196.0" x2="135.5" y2="193.5" stroke="#1a140e" stroke-width="1"/><line x1="151.7" y1="177.7" x2="147.7" y2="174.8" stroke="#1a140e" stroke-width="1"/><line x1="165.4" y1="160.8" x2="161.7" y2="157.5" stroke="#1a140e" stroke-width="1"/><line x1="180.8" y1="145.4" x2="177.5" y2="141.7" stroke="#1a140e" stroke-width="1"/><line x1="197.7" y1="131.7" x2="194.8" y2="127.7" stroke="#1a140e" stroke-width="1"/><line x1="216.0" y1="119.9" x2="213.5" y2="115.5" stroke="#1a140e" stroke-width="1"/><line x1="235.4" y1="110.0" x2="233.4" y2="105.4" stroke="#1a140e" stroke-width="1"/><line x1="255.7" y1="102.2" x2="254.2" y2="97.4" stroke="#1a140e" stroke-width="1"/><line x1="276.8" y1="96.5" x2="275.7" y2="91.7" stroke="#1a140e" stroke-width="1"/><line x1="298.3" y1="93.1" x2="297.7" y2="88.2" stroke="#1a140e" stroke-width="1"/><line x1="320.0" y1="92.0" x2="320.0" y2="87.0" stroke="#1a140e" stroke-width="1"/><line x1="341.7" y1="93.1" x2="342.3" y2="88.2" stroke="#1a140e" stroke-width="1"/><line x1="363.2" y1="96.5" x2="364.3" y2="91.7" stroke="#1a140e" stroke-width="1"/><line x1="384.3" y1="102.2" x2="385.8" y2="97.4" stroke="#1a140e" stroke-width="1"/><line x1="404.6" y1="110.0" x2="406.6" y2="105.4" stroke="#1a140e" stroke-width="1"/><line x1="424.0" y1="119.9" x2="426.5" y2="115.5" stroke="#1a140e" stroke-width="1"/><line x1="442.3" y1="131.7" x2="445.2" y2="127.7" stroke="#1a140e" stroke-width="1"/><line x1="459.2" y1="145.4" x2="462.5" y2="141.7" stroke="#1a140e" stroke-width="1"/><line x1="474.6" y1="160.8" x2="478.3" y2="157.5" stroke="#1a140e" stroke-width="1"/><line x1="488.3" y1="177.7" x2="492.3" y2="174.8" stroke="#1a140e" stroke-width="1"/><line x1="500.1" y1="196.0" x2="504.5" y2="193.5" stroke="#1a140e" stroke-width="1"/><line x1="510.0" y1="215.4" x2="514.6" y2="213.4" stroke="#1a140e" stroke-width="1"/><line x1="517.8" y1="235.7" x2="522.6" y2="234.2" stroke="#1a140e" stroke-width="1"/><line x1="523.5" y1="256.8" x2="528.3" y2="255.7" stroke="#1a140e" stroke-width="1"/><line x1="526.9" y1="278.3" x2="531.8" y2="277.7" stroke="#1a140e" stroke-width="1"/><path id="arcTop" d="M128,300 A192,192 0 0 1 512,300" fill="none"/><text font-family="Georgia, serif" font-size="17" letter-spacing="7" fill="#1a140e" opacity="0.85"><textPath xlink:href="#arcTop" startOffset="50%" text-anchor="middle">&#183; IGNEM &#183; DEDIT &#183;</textPath></text><text x="320" y="602" text-anchor="middle" font-family="Georgia, serif" font-size="42" font-weight="bold" letter-spacing="9" fill="url(#gold)">PROMETHEUS</text></svg>