<svg xmlns="http://www.w3.org/2000/svg" viewBox="0 0 640 640" width="640" height="640"><defs>
  <radialGradient id="bg" cx="50%" cy="42%" r="72%">
    <stop offset="0%" stop-color="#141019"/><stop offset="55%" stop-color="#0a0710"/><stop offset="100%" stop-color="#050409"/>
  </radialGradient>
  <radialGradient id="glow" cx="50%" cy="50%" r="50%">
    <stop offset="0%" stop-color="#ff7a28" stop-opacity="0.55"/><stop offset="45%" stop-color="#c23a08" stop-opacity="0.22"/><stop offset="100%" stop-color="#c23a08" stop-opacity="0"/>
  </radialGradient>
  <linearGradient id="gold" x1="0" y1="0" x2="0" y2="1">
    <stop offset="0%" stop-color="#ffe9b0"/><stop offset="48%" stop-color="#e9b45c"/><stop offset="100%" stop-color="#b07d2e"/>
  </linearGradient>
  <linearGradient id="leaf" x1="0" y1="0" x2="1" y2="0">
    <stop offset="0%" stop-color="#d9ad57"/><stop offset="100%" stop-color="#9c7328"/>
  </linearGradient>
  <linearGradient id="stone" x1="0" y1="0" x2="1" y2="0">
    <stop offset="0%" stop-color="#4b4034"/><stop offset="35%" stop-color="#2c251d"/><stop offset="100%" stop-color="#181410"/>
  </linearGradient>
  <linearGradient id="handle" x1="0" y1="0" x2="1" y2="0">
    <stop offset="0%" stop-color="#8a6326"/><stop offset="50%" stop-color="#f0cd7e"/><stop offset="100%" stop-color="#6f4d1c"/>
  </linearGradient>
</defs><rect width="640" height="640" fill="url(#bg)"/><ellipse cx="320" cy="300" rx="220" ry="240" fill="url(#glow)"/><g transform="translate(398.7,514.7) rotate(-6.0)"><ellipse rx="19" ry="6.6" fill="url(#leaf)"/><ellipse rx="19" ry="6.6" fill="none" stroke="#7a5a24" stroke-width="0.6" opacity="0.5"/></g><g transform="translate(426.6,500.9) rotate(-14.5)"><ellipse rx="19" ry="6.6" fill="url(#leaf)"/><ellipse rx="19" ry="6.6" fill="none" stroke="#7a5a24" stroke-width="0.6" opacity="0.5"/></g><g transform="translate(452.2,483.2) rotate(-23.0)"><ellipse rx="19" ry="6.6" fill="url(#leaf)"/><ellipse rx="19" ry="6.6" fill="none" stroke="#7a5a24" stroke-width="0.6" opacity="0.5"/></g><g transform="translate(474.8,461.9) rotate(-31.5)"><ellipse rx="19" ry="6.6" fill="url(#leaf)"/><ellipse rx="19" ry="6.6" fill="none" stroke="#7a5a24" stroke-width="0.6" opacity="0.5"/></g><g transform="translate(494.1,437.4) rotate(-40.0)"><ellipse rx="19" ry="6.6" fill="url(#leaf)"/><ellipse rx="19" ry="6.6" fill="none" stroke="#7a5a24" stroke-width="0.6" opacity="0.5"/></g><g transform="translate(509.5,410.4) rotate(-48.5)"><ellipse rx="19" ry="6.6" fill="url(#leaf)"/><ellipse rx="19" ry="6.6" fill="none" stroke="#7a5a24" stroke-width="0.6" opacity="0.5"/></g><g transform="translate(520.8,381.4) rotate(-57.0)"><ellipse rx="19" ry="6.6" fill="url(#leaf)"/><ellipse rx="19" ry="6.6" fill="none" stroke="#7a5a24" stroke-width="0.6" opacity="0.5"/></g><g transform="translate(527.7,351.0) rotate(-65.5)"><ellipse rx="19" ry="6.6" fill="url(#leaf)"/><ellipse rx="19" ry="6.6" fill="none" stroke="#7a5a24" stroke-width="0.6" opacity="0.5"/></g><g transform="translate(530.0,320.0) rotate(-74.0)"><ellipse rx="19" ry="6.6" fill="url(#leaf)"/><ellipse rx="19" ry="6.6" fill="none" stroke="#7a5a24" stroke-width="0.6" opacity="0.5"/></g><g transform="translate(527.7,289.0) rotate(-82.5)"><ellipse rx="19" ry="6.6" fill="url(#leaf)"/><ellipse rx="19" ry="6.6" fill="none" stroke="#7a5a24" stroke-width="0.6" opacity="0.5"/></g><g transform="translate(520.8,258.6) rotate(-91.0)"><ellipse rx="19" ry="6.6" fill="url(#leaf)"/><ellipse rx="19" ry="6.6" fill="none" stroke="#7a5a24" stroke-width="0.6" opacity="0.5"/></g><g transform="translate(509.5,229.6) rotate(-99.5)"><ellipse rx="19" ry="6.6" fill="url(#leaf)"/><ellipse rx="19" ry="6.6" fill="none" stroke="#7a5a24" stroke-width="0.6" opacity="0.5"/></g><g transform="translate(494.1,202.6) rotate(-108.0)"><ellipse rx="19" ry="6.6" fill="url(#leaf)"/><ellipse rx="19" ry="6.6" fill="none" stroke="#7a5a24" stroke-width="0.6" opacity="0.5"/></g><g transform="translate(474.8,178.1) rotate(-116.5)"><ellipse rx="19" ry="6.6" fill="url(#leaf)"/><ellipse rx="19" ry="6.6" fill="none" stroke="#7a5a24" stroke-width="0.6" opacity="0.5"/></g><g transform="translate(452.2,156.8) rotate(-125.0)"><ellipse rx="19" ry="6.6" fill="url(#leaf)"/><ellipse rx="19" ry="6.6" fill="none" stroke="#7a5a24" stroke-width="0.6" opacity="0.5"/></g><g transform="translate(426.6,139.1) rotate(-133.5)"><ellipse rx="19" ry="6.6" fill="url(#leaf)"/><ellipse rx="19" ry="6.6" fill="none" stroke="#7a5a24" stroke-width="0.6" opacity="0.5"/></g><g transform="translate(398.7,125.3) rotate(-142.0)"><ellipse rx="19" ry="6.6" fill="url(#leaf)"/><ellipse rx="19" ry="6.6" fill="none" stroke="#7a5a24" stroke-width="0.6" opacity="0.5"/></g><g transform="translate(369.0,115.8) rotate(-150.5)"><ellipse rx="19" ry="6.6" fill="url(#leaf)"/><ellipse rx="19" ry="6.6" fill="none" stroke="#7a5a24" stroke-width="0.6" opacity="0.5"/></g><g transform="translate(241.3,514.7) rotate(6.0)"><ellipse rx="19" ry="6.6" fill="url(#leaf)"/><ellipse rx="19" ry="6.6" fill="none" stroke="#7a5a24" stroke-width="0.6" opacity="0.5"/></g><g transform="translate(213.4,500.9) rotate(14.5)"><ellipse rx="19" ry="6.6" fill="url(#leaf)"/><ellipse rx="19" ry="6.6" fill="none" stroke="#7a5a24" stroke-width="0.6" opacity="0.5"/></g><g transform="translate(187.8,483.2) rotate(23.0)"><ellipse rx="19" ry="6.6" fill="url(#leaf)"/><ellipse rx="19" ry="6.6" fill="none" stroke="#7a5a24" stroke-width="0.6" opacity="0.5"/></g><g transform="translate(165.2,461.9) rotate(31.5)"><ellipse rx="19" ry="6.6" fill="url(#leaf)"/><ellipse rx="19" ry="6.6" fill="none" stroke="#7a5a24" stroke-width="0.6" opacity="0.5"/></g><g transform="translate(145.9,437.4) rotate(40.0)"><ellipse rx="19" ry="6.6" fill="url(#leaf)"/><ellipse rx="19" ry="6.6" fill="none" stroke="#7a5a24" stroke-width="0.6" opacity="0.5"/></g><g transform="translate(130.5,410.4) rotate(48.5)"><ellipse rx="19" ry="6.6" fill="url(#leaf)"/><ellipse rx="19" ry="6.6" fill="none" stroke="#7a5a24" stroke-width="0.6" opacity="0.5"/></g><g transform="translate(119.2,381.4) rotate(57.0)"><ellipse rx="19" ry="6.6" fill="url(#leaf)"/><ellipse rx="19" ry="6.6" fill="none" stroke="#7a5a24" stroke-width="0.6" opacity="0.5"/></g><g transform="translate(112.3,351.0) rotate(65.5)"><ellipse rx="19" ry="6.6" fill="url(#leaf)"/><ellipse rx="19" ry="6.6" fill="none" stroke="#7a5a24" stroke-width="0.6" opacity="0.5"/></g><g transform="translate(110.0,320.0) rotate(74.0)"><ellipse rx="19" ry="6.6" fill="url(#leaf)"/><ellipse rx="19" ry="6.6" fill="none" stroke="#7a5a24" stroke-width="0.6" opacity="0.5"/></g><g transform="translate(112.3,289.0) rotate(82.5)"><ellipse rx="19" ry="6.6" fill="url(#leaf)"/><ellipse rx="19" ry="6.6" fill="none" stroke="#7a5a24" stroke-width="0.6" opacity="0.5"/></g><g transform="translate(119.2,258.6) rotate(91.0)"><ellipse rx="19" ry="6.6" fill="url(#leaf)"/><ellipse rx="19" ry="6.6" fill="none" stroke="#7a5a24" stroke-width="0.6" opacity="0.5"/></g><g transform="translate(130.5,229.6) rotate(99.5)"><ellipse rx="19" ry="6.6" fill="url(#leaf)"/><ellipse rx="19" ry="6.6" fill="none" stroke="#7a5a24" stroke-width="0.6" opacity="0.5"/></g><g transform="translate(145.9,202.6) rotate(108.0)"><ellipse rx="19" ry="6.6" fill="url(#leaf)"/><ellipse rx="19" ry="6.6" fill="none" stroke="#7a5a24" stroke-width="0.6" opacity="0.5"/></g><g transform="translate(165.2,178.1) rotate(116.5)"><ellipse rx="19" ry="6.6" fill="url(#leaf)"/><ellipse rx="19" ry="6.6" fill="none" stroke="#7a5a24" stroke-width="0.6" opacity="0.5"/></g><g transform="translate(187.8,156.8) rotate(125.0)"><ellipse rx="19" ry="6.6" fill="url(#leaf)"/><ellipse rx="19" ry="6.6" fill="none" stroke="#7a5a24" stroke-width="0.6" opacity="0.5"/></g><g transform="translate(213.4,139.1) rotate(133.5)"><ellipse rx="19" ry="6.6" fill="url(#leaf)"/><ellipse rx="19" ry="6.6" fill="none" stroke="#7a5a24" stroke-width="0.6" opacity="0.5"/></g><g transform="translate(241.3,125.3) rotate(142.0)"><ellipse rx="19" ry="6.6" fill="url(#leaf)"/><ellipse rx="19" ry="6.6" fill="none" stroke="#7a5a24" stroke-width="0.6" opacity="0.5"/></g><g transform="translate(271.0,115.8) rotate(150.5)"><ellipse rx="19" ry="6.6" fill="url(#leaf)"/><ellipse rx="19" ry="6.6" fill="none" stroke="#7a5a24" stroke-width="0.6" opacity="0.5"/></g><circle cx="320" cy="108" r="9" fill="url(#gold)"/><path d="M312,112 q-26,10 -40,30 l14,4 q16,-18 32,-24 z" fill="url(#gold)" opacity="0.9"/><path d="M328,112 q26,10 40,30 l-14,4 q-16,-18 -32,-24 z" fill="url(#gold)" opacity="0.9"/><polygon points="309,368 331,368 327,510 313,510" fill="url(#handle)"/><ellipse cx="320" cy="510" rx="9" ry="4" fill="#6f4d1c"/><ellipse cx="320" cy="360" rx="46" ry="13" fill="url(#gold)"/><ellipse cx="320" cy="358" rx="38" ry="8" fill="#3a2408"/><circle cx="294.9" cy="347.6" r="6.8" fill="rgb(92,17,8)" opacity="0.56"/><circle cx="319.6" cy="345.8" r="6.8" fill="rgb(95,17,8)" opacity="0.63"/><circle cx="297.5" cy="343.6" r="6.7" fill="rgb(99,18,8)" opacity="0.67"/><circle cx="279.3" cy="342.4" r="6.7" fill="rgb(101,18,8)" opacity="0.71"/><circle cx="263.8" cy="338.6" r="6.6" fill="rgb(108,19,8)" opacity="0.69"/><circle cx="370.4" cy="336.9" r="6.5" fill="rgb(111,20,8)" opacity="0.68"/><circle cx="285.7" cy="335.7" r="6.5" fill="rgb(114,20,8)" opacity="0.69"/><circle cx="259.2" cy="334.9" r="6.5" fill="rgb(115,20,8)" opacity="0.62"/><circle cx="349.2" cy="333.3" r="6.4" fill="rgb(118,21,8)" opacity="0.74"/><circle cx="325.3" cy="333.2" r="6.4" fill="rgb(118,21,8)" opacity="0.57"/><circle cx="293.6" cy="332.3" r="6.4" fill="rgb(120,21,8)" opacity="0.85"/><circle cx="265.5" cy="331.7" r="6.4" fill="rgb(121,21,8)" opacity="0.64"/><circle cx="373.2" cy="330.5" r="6.4" fill="rgb(123,22,8)" opacity="0.75"/><circle cx="384.0" cy="328.7" r="6.3" fill="rgb(127,22,8)" opacity="0.84"/><circle cx="329.2" cy="328.7" r="6.3" fill="rgb(127,22,8)" opacity="0.71"/><circle cx="289.0" cy="328.6" r="6.3" fill="rgb(127,22,8)" opacity="0.58"/><circle cx="304.5" cy="320.2" r="6.1" fill="rgb(142,25,8)" opacity="0.56"/><circle cx="301.5" cy="320.0" r="6.1" fill="rgb(143,25,8)" opacity="0.67"/><circle cx="290.3" cy="319.3" r="6.1" fill="rgb(144,25,8)" opacity="0.57"/><circle cx="372.1" cy="319.3" r="6.1" fill="rgb(144,25,8)" opacity="0.80"/><circle cx="259.6" cy="316.0" r="6.0" fill="rgb(150,26,8)" opacity="0.90"/><circle cx="311.8" cy="315.7" r="6.0" fill="rgb(150,26,8)" opacity="0.89"/><circle cx="381.1" cy="315.6" r="6.0" fill="rgb(151,27,8)" opacity="0.64"/><circle cx="374.7" cy="314.4" r="5.9" fill="rgb(153,28,8)" opacity="1.00"/><circle cx="272.3" cy="313.3" r="5.9" fill="rgb(154,29,8)" opacity="0.96"/><circle cx="286.4" cy="312.7" r="5.9" fill="rgb(155,30,8)" opacity="0.73"/><circle cx="260.3" cy="312.6" r="5.9" fill="rgb(156,30,8)" opacity="0.88"/><circle cx="370.8" cy="311.9" r="5.9" fill="rgb(157,31,8)" opacity="0.78"/><circle cx="267.3" cy="310.7" r="5.8" fill="rgb(159,33,9)" opacity="0.75"/><circle cx="326.9" cy="309.5" r="5.8" fill="rgb(161,34,9)" opacity="0.98"/><circle cx="380.3" cy="309.2" r="5.8" fill="rgb(161,35,9)" opacity="0.99"/><circle cx="266.3" cy="308.8" r="5.8" fill="rgb(162,35,9)" opacity="0.69"/><circle cx="286.4" cy="308.0" r="5.8" fill="rgb(163,36,9)" opacity="0.88"/><circle cx="274.6" cy="307.2" r="5.7" fill="rgb(165,37,9)" opacity="0.65"/><circle cx="321.5" cy="306.9" r="5.7" fill="rgb(165,38,9)" opacity="0.57"/><circle cx="355.5" cy="306.3" r="5.7" fill="rgb(166,38,9)" opacity="0.85"/><circle cx="312.6" cy="304.5" r="5.7" fill="rgb(169,41,9)" opacity="0.78"/><circle cx="318.7" cy="301.8" r="5.6" fill="rgb(173,44,10)" opacity="0.88"/><circle cx="247.0" cy="299.2" r="5.5" fill="rgb(178,48,10)" opacity="0.91"/><circle cx="277.0" cy="296.0" r="5.4" fill="rgb(183,52,10)" opacity="0.83"/><circle cx="322.8" cy="295.0" r="5.4" fill="rgb(185,53,10)" opacity="0.55"/><circle cx="270.2" cy="293.1" r="5.4" fill="rgb(188,55,11)" opacity="0.70"/><circle cx="390.8" cy="290.6" r="5.3" fill="rgb(192,59,11)" opacity="0.73"/><circle cx="341.0" cy="289.8" r="5.3" fill="rgb(193,60,11)" opacity="0.98"/><circle cx="334.4" cy="287.6" r="5.2" fill="rgb(197,62,11)" opacity="0.79"/><circle cx="319.0" cy="287.5" r="5.2" fill="rgb(197,63,11)" opacity="0.82"/><circle cx="261.6" cy="286.3" r="5.2" fill="rgb(199,64,11)" opacity="0.62"/><circle cx="256.1" cy="283.3" r="5.1" fill="rgb(204,68,12)" opacity="0.67"/><circle cx="297.7" cy="283.3" r="5.1" fill="rgb(204,68,12)" opacity="0.71"/><circle cx="269.6" cy="282.5" r="5.1" fill="rgb(205,69,12)" opacity="0.59"/><circle cx="267.5" cy="281.8" r="5.1" fill="rgb(206,70,12)" opacity="0.96"/><circle cx="308.5" cy="281.7" r="5.1" fill="rgb(207,70,12)" opacity="0.61"/><circle cx="300.5" cy="281.3" r="5.1" fill="rgb(207,70,12)" opacity="0.63"/><circle cx="245.4" cy="280.9" r="5.0" fill="rgb(208,71,12)" opacity="0.74"/><circle cx="390.8" cy="280.8" r="5.0" fill="rgb(208,71,12)" opacity="0.99"/><circle cx="258.4" cy="280.6" r="5.0" fill="rgb(208,71,12)" opacity="0.73"/><circle cx="264.4" cy="279.8" r="5.0" fill="rgb(210,72,12)" opacity="0.79"/><circle cx="281.5" cy="276.7" r="4.9" fill="rgb(215,76,12)" opacity="0.68"/><circle cx="303.1" cy="276.2" r="4.9" fill="rgb(216,77,12)" opacity="0.85"/><circle cx="281.3" cy="274.4" r="4.9" fill="rgb(219,79,13)" opacity="0.81"/><circle cx="330.0" cy="271.9" r="4.8" fill="rgb(223,82,13)" opacity="0.56"/><circle cx="358.4" cy="271.8" r="4.8" fill="rgb(223,83,13)" opacity="0.68"/><circle cx="298.6" cy="270.9" r="4.8" fill="rgb(224,84,13)" opacity="0.55"/><circle cx="268.4" cy="267.9" r="4.7" fill="rgb(229,88,13)" opacity="0.84"/><circle cx="279.1" cy="266.6" r="4.7" fill="rgb(231,89,13)" opacity="0.92"/><circle cx="275.3" cy="264.7" r="4.6" fill="rgb(235,92,14)" opacity="0.69"/><circle cx="327.0" cy="264.7" r="4.6" fill="rgb(235,92,14)" opacity="0.97"/><circle cx="373.7" cy="260.7" r="4.5" fill="rgb(240,97,14)" opacity="0.98"/><circle cx="279.5" cy="259.5" r="4.5" fill="rgb(241,99,15)" opacity="0.65"/><circle cx="328.3" cy="258.5" r="4.4" fill="rgb(241,100,16)" opacity="0.98"/><circle cx="315.3" cy="256.0" r="4.4" fill="rgb(242,103,17)" opacity="0.78"/><circle cx="304.8" cy="253.9" r="4.3" fill="rgb(242,106,19)" opacity="0.60"/><circle cx="298.0" cy="251.4" r="4.3" fill="rgb(243,109,20)" opacity="0.57"/><circle cx="372.7" cy="248.0" r="4.2" fill="rgb(244,114,23)" opacity="0.92"/><circle cx="361.4" cy="247.6" r="4.2" fill="rgb(244,115,23)" opacity="0.61"/><circle cx="262.6" cy="245.8" r="4.1" fill="rgb(245,117,24)" opacity="0.59"/><circle cx="256.4" cy="244.5" r="4.1" fill="rgb(245,119,25)" opacity="0.70"/><circle cx="289.0" cy="242.7" r="4.0" fill="rgb(246,121,26)" opacity="0.64"/><circle cx="358.2" cy="240.9" r="4.0" fill="rgb(247,124,27)" opacity="0.99"/><circle cx="275.5" cy="240.8" r="4.0" fill="rgb(247,124,27)" opacity="0.75"/><circle cx="316.2" cy="239.6" r="3.9" fill="rgb(247,125,28)" opacity="0.59"/><circle cx="371.0" cy="237.9" r="3.9" fill="rgb(248,128,29)" opacity="0.60"/><circle cx="371.5" cy="237.3" r="3.9" fill="rgb(248,128,30)" opacity="0.86"/><circle cx="340.3" cy="237.1" r="3.9" fill="rgb(248,129,30)" opacity="0.90"/><circle cx="376.4" cy="235.5" r="3.8" fill="rgb(248,131,31)" opacity="0.92"/><circle cx="259.3" cy="235.1" r="3.8" fill="rgb(249,131,31)" opacity="0.91"/><circle cx="280.8" cy="233.1" r="3.8" fill="rgb(249,134,32)" opacity="0.71"/><circle cx="356.7" cy="232.3" r="3.7" fill="rgb(249,135,33)" opacity="0.91"/><circle cx="314.2" cy="230.0" r="3.7" fill="rgb(250,138,34)" opacity="0.76"/><circle cx="301.9" cy="229.8" r="3.7" fill="rgb(250,138,34)" opacity="0.56"/><circle cx="264.8" cy="228.8" r="3.7" fill="rgb(251,140,35)" opacity="0.75"/><circle cx="267.9" cy="225.1" r="3.6" fill="rgb(252,145,38)" opacity="0.79"/><circle cx="291.2" cy="224.4" r="3.5" fill="rgb(252,146,38)" opacity="0.98"/><circle cx="279.4" cy="224.1" r="3.5" fill="rgb(252,146,38)" opacity="0.56"/><circle cx="358.5" cy="224.0" r="3.5" fill="rgb(252,146,38)" opacity="0.92"/><circle cx="347.7" cy="222.9" r="3.5" fill="rgb(253,148,39)" opacity="0.60"/><circle cx="300.3" cy="222.7" r="3.5" fill="rgb(253,148,39)" opacity="0.78"/><circle cx="363.7" cy="222.1" r="3.5" fill="rgb(253,149,39)" opacity="0.93"/><circle cx="292.5" cy="222.0" r="3.5" fill="rgb(253,149,40)" opacity="0.67"/><circle cx="338.3" cy="220.1" r="3.4" fill="rgb(253,151,41)" opacity="0.59"/><circle cx="320.8" cy="219.4" r="3.4" fill="rgb(254,152,41)" opacity="0.94"/><circle cx="308.1" cy="219.0" r="3.4" fill="rgb(254,153,42)" opacity="0.99"/><circle cx="357.6" cy="217.8" r="3.4" fill="rgb(254,154,42)" opacity="0.74"/><circle cx="313.8" cy="217.4" r="3.4" fill="rgb(254,155,43)" opacity="0.68"/><circle cx="325.9" cy="215.8" r="3.3" fill="rgb(255,157,44)" opacity="0.76"/><circle cx="319.0" cy="212.6" r="3.2" fill="rgb(255,163,54)" opacity="0.78"/><circle cx="331.2" cy="211.8" r="3.2" fill="rgb(255,165,57)" opacity="0.58"/><circle cx="319.6" cy="210.6" r="3.2" fill="rgb(255,167,61)" opacity="0.58"/><circle cx="329.5" cy="209.9" r="3.2" fill="rgb(255,168,64)" opacity="0.86"/><circle cx="281.5" cy="208.7" r="3.1" fill="rgb(255,171,68)" opacity="0.58"/><circle cx="308.0" cy="207.9" r="3.1" fill="rgb(255,172,71)" opacity="0.80"/><circle cx="281.0" cy="207.2" r="3.1" fill="rgb(255,174,74)" opacity="0.93"/><circle cx="358.9" cy="206.5" r="3.1" fill="rgb(255,175,76)" opacity="0.92"/><circle cx="342.7" cy="205.5" r="3.0" fill="rgb(255,177,80)" opacity="0.59"/><circle cx="284.6" cy="204.4" r="3.0" fill="rgb(255,179,84)" opacity="0.88"/><circle cx="350.9" cy="204.1" r="3.0" fill="rgb(255,180,85)" opacity="0.90"/><circle cx="284.8" cy="203.5" r="3.0" fill="rgb(255,181,87)" opacity="0.87"/><circle cx="339.0" cy="202.8" r="3.0" fill="rgb(255,182,90)" opacity="0.81"/><circle cx="340.4" cy="202.6" r="3.0" fill="rgb(255,183,91)" opacity="0.95"/><circle cx="285.6" cy="201.4" r="2.9" fill="rgb(255,185,95)" opacity="0.95"/><circle cx="313.6" cy="200.7" r="2.9" fill="rgb(255,186,98)" opacity="0.69"/><circle cx="333.0" cy="200.2" r="2.9" fill="rgb(255,187,100)" opacity="0.65"/><circle cx="353.5" cy="199.4" r="2.9" fill="rgb(255,189,103)" opacity="0.70"/><circle cx="320.1" cy="198.9" r="2.9" fill="rgb(255,190,104)" opacity="0.83"/><circle cx="331.4" cy="198.6" r="2.9" fill="rgb(255,190,106)" opacity="0.68"/><circle cx="351.2" cy="198.6" r="2.8" fill="rgb(255,190,106)" opacity="0.75"/><circle cx="315.6" cy="198.5" r="2.8" fill="rgb(255,191,106)" opacity="0.79"/><circle cx="288.7" cy="193.5" r="2.7" fill="rgb(255,200,125)" opacity="0.80"/><circle cx="301.0" cy="192.3" r="2.7" fill="rgb(255,203,129)" opacity="0.88"/><circle cx="306.1" cy="192.2" r="2.7" fill="rgb(255,203,129)" opacity="0.99"/><circle cx="322.3" cy="191.6" r="2.7" fill="rgb(255,204,132)" opacity="0.64"/><circle cx="319.5" cy="189.0" r="2.6" fill="rgb(255,209,141)" opacity="0.79"/><circle cx="318.1" cy="188.7" r="2.6" fill="rgb(255,210,142)" opacity="0.63"/><circle cx="328.3" cy="188.7" r="2.6" fill="rgb(255,210,143)" opacity="0.87"/><circle cx="341.9" cy="187.1" r="2.5" fill="rgb(255,213,148)" opacity="0.75"/><circle cx="321.2" cy="185.1" r="2.5" fill="rgb(255,217,156)" opacity="0.90"/><circle cx="319.9" cy="185.0" r="2.5" fill="rgb(255,217,156)" opacity="0.80"/><circle cx="308.1" cy="183.9" r="2.5" fill="rgb(255,219,160)" opacity="0.61"/><circle cx="338.2" cy="183.7" r="2.5" fill="rgb(255,219,161)" opacity="0.91"/><circle cx="311.6" cy="182.2" r="2.4" fill="rgb(255,222,167)" opacity="0.91"/><circle cx="321.8" cy="126.1" r="2.4" fill="rgb(255,219,161)" opacity="0.64"/><circle cx="328.8" cy="181.3" r="2.4" fill="rgb(255,224,170)" opacity="0.66"/><circle cx="347.4" cy="130.5" r="2.4" fill="rgb(255,219,161)" opacity="0.50"/><circle cx="301.0" cy="180.1" r="2.4" fill="rgb(255,227,174)" opacity="0.94"/><circle cx="304.2" cy="179.3" r="2.3" fill="rgb(255,228,177)" opacity="0.92"/><circle cx="304.4" cy="178.3" r="2.3" fill="rgb(255,230,181)" opacity="0.79"/><circle cx="360.1" cy="110.9" r="2.3" fill="rgb(255,219,161)" opacity="0.62"/><circle cx="306.5" cy="177.7" r="2.3" fill="rgb(255,231,183)" opacity="0.81"/><circle cx="329.6" cy="177.3" r="2.3" fill="rgb(255,232,185)" opacity="0.65"/><circle cx="317.0" cy="177.2" r="2.3" fill="rgb(255,232,185)" opacity="0.77"/><circle cx="308.4" cy="176.0" r="2.2" fill="rgb(255,234,190)" opacity="0.66"/><circle cx="323.1" cy="176.0" r="2.2" fill="rgb(255,235,190)" opacity="0.95"/><circle cx="345.0" cy="93.5" r="2.2" fill="rgb(255,219,161)" opacity="0.52"/><circle cx="306.7" cy="175.6" r="2.2" fill="rgb(255,235,191)" opacity="0.56"/><circle cx="327.6" cy="175.0" r="2.2" fill="rgb(255,236,193)" opacity="0.84"/><circle cx="363.4" cy="126.0" r="2.2" fill="rgb(255,219,161)" opacity="0.72"/><circle cx="315.8" cy="174.6" r="2.2" fill="rgb(255,237,195)" opacity="0.78"/><circle cx="335.9" cy="173.7" r="2.2" fill="rgb(255,239,198)" opacity="0.76"/><circle cx="333.1" cy="173.5" r="2.2" fill="rgb(255,239,199)" opacity="0.85"/><circle cx="348.4" cy="147.9" r="2.1" fill="rgb(255,219,161)" opacity="0.45"/><circle cx="313.0" cy="169.8" r="2.1" fill="rgb(255,240,200)" opacity="0.74"/><circle cx="307.6" cy="168.6" r="2.0" fill="rgb(255,240,200)" opacity="0.75"/><circle cx="323.2" cy="168.1" r="2.0" fill="rgb(255,240,200)" opacity="0.62"/><circle cx="314.6" cy="167.9" r="2.0" fill="rgb(255,240,200)" opacity="0.86"/><circle cx="332.5" cy="167.8" r="2.0" fill="rgb(255,240,200)" opacity="0.67"/><circle cx="316.9" cy="167.3" r="2.0" fill="rgb(255,240,200)" opacity="0.70"/><circle cx="325.3" cy="166.1" r="2.0" fill="rgb(255,240,200)" opacity="0.65"/><circle cx="296.1" cy="105.7" r="2.0" fill="rgb(255,219,161)" opacity="0.58"/><circle cx="323.2" cy="165.3" r="2.0" fill="rgb(255,240,200)" opacity="0.88"/><circle cx="319.7" cy="164.3" r="1.9" fill="rgb(255,240,200)" opacity="0.56"/><circle cx="328.0" cy="163.9" r="1.9" fill="rgb(255,240,200)" opacity="0.77"/><circle cx="316.9" cy="162.3" r="1.9" fill="rgb(255,240,200)" opacity="0.76"/><circle cx="320.1" cy="161.1" r="1.8" fill="rgb(255,240,200)" opacity="0.79"/><circle cx="318.9" cy="158.5" r="1.8" fill="rgb(255,240,200)" opacity="0.94"/><circle cx="327.8" cy="158.0" r="1.8" fill="rgb(255,240,200)" opacity="0.98"/><circle cx="315.9" cy="156.6" r="1.7" fill="rgb(255,240,200)" opacity="0.81"/><circle cx="323.2" cy="156.4" r="1.7" fill="rgb(255,240,200)" opacity="0.63"/><circle cx="320.4" cy="155.8" r="1.7" fill="rgb(255,240,200)" opacity="0.62"/><circle cx="314.7" cy="109.4" r="1.7" fill="rgb(255,219,161)" opacity="0.56"/><circle cx="321.4" cy="152.6" r="1.6" fill="rgb(255,240,200)" opacity="0.79"/><circle cx="319.1" cy="152.5" r="1.6" fill="rgb(255,240,200)" opacity="0.73"/><circle cx="312.4" cy="133.3" r="1.6" fill="rgb(255,219,161)" opacity="0.48"/><circle cx="320.0" cy="151.8" r="1.6" fill="rgb(255,240,200)" opacity="0.72"/><circle cx="323.2" cy="151.5" r="1.6" fill="rgb(255,240,200)" opacity="0.56"/><circle cx="322.6" cy="151.4" r="1.6" fill="rgb(255,240,200)" opacity="0.86"/><circle cx="321.1" cy="151.1" r="1.6" fill="rgb(255,240,200)" opacity="0.71"/><circle cx="318.1" cy="150.4" r="1.6" fill="rgb(255,240,200)" opacity="0.88"/><circle cx="322.0" cy="150.4" r="1.6" fill="rgb(255,240,200)" opacity="0.91"/><circle cx="321.6" cy="150.4" r="1.6" fill="rgb(255,240,200)" opacity="0.99"/><circle cx="301.6" cy="93.5" r="1.6" fill="rgb(255,219,161)" opacity="0.54"/><circle cx="329.3" cy="147.8" r="1.5" fill="rgb(255,219,161)" opacity="0.52"/><circle cx="318.3" cy="139.7" r="1.3" fill="rgb(255,219,161)" opacity="0.74"/><circle cx="340.1" cy="103.7" r="1.3" fill="rgb(255,219,161)" opacity="0.42"/><circle cx="354.6" cy="142.0" r="1.3" fill="rgb(255,219,161)" opacity="0.77"/><circle cx="324.4" cy="126.8" r="1.2" fill="rgb(255,219,161)" opacity="0.42"/><circle cx="304.8" cy="138.2" r="1.1" fill="rgb(255,219,161)" opacity="0.76"/><text x="320" y="600" text-anchor="middle" font-family="Georgia, serif" font-size="46" font-weight="bold" letter-spacing="10" fill="url(#gold)">PROMETHEUS</text></svg>