<svg xmlns="http://www.w3.org/2000/svg" viewBox="0 0 1280 620" width="1280" height="620"><defs>
  <radialGradient id="bg" cx="50%" cy="42%" r="72%">
    <stop offset="0%" stop-color="#141019"/><stop offset="55%" stop-color="#0a0710"/><stop offset="100%" stop-color="#050409"/>
  </radialGradient>
  <radialGradient id="glow" cx="50%" cy="50%" r="50%">
    <stop offset="0%" stop-color="#ff7a28" stop-opacity="0.55"/><stop offset="45%" stop-color="#c23a08" stop-opacity="0.22"/><stop offset="100%" stop-color="#c23a08" stop-opacity="0"/>
  </radialGradient>
  <linearGradient id="gold" x1="0" y1="0" x2="0" y2="1">
    <stop offset="0%" stop-color="#ffe9b0"/><stop offset="48%" stop-color="#e9b45c"/><stop offset="100%" stop-color="#b07d2e"/>
  </linearGradient>
  <linearGradient id="leaf" x1="0" y1="0" x2="1" y2="0">
    <stop offset="0%" stop-color="#d9ad57"/><stop offset="100%" stop-color="#9c7328"/>
  </linearGradient>
  <linearGradient id="stone" x1="0" y1="0" x2="1" y2="0">
    <stop offset="0%" stop-color="#4b4034"/><stop offset="35%" stop-color="#2c251d"/><stop offset="100%" stop-color="#181410"/>
  </linearGradient>
  <linearGradient id="handle" x1="0" y1="0" x2="1" y2="0">
    <stop offset="0%" stop-color="#8a6326"/><stop offset="50%" stop-color="#f0cd7e"/><stop offset="100%" stop-color="#6f4d1c"/>
  </linearGradient>
</defs><rect width="1280" height="620" fill="url(#bg)"/><ellipse cx="640" cy="245" rx="340" ry="300" fill="url(#glow)"/><rect x="140" y="120" width="86" height="20" rx="3" fill="url(#stone)"/><rect x="146" y="138" width="74" height="12" fill="url(#stone)"/><rect x="150" y="148" width="66" height="310" fill="url(#stone)"/><line x1="160.6" y1="150" x2="160.6" y2="456" stroke="#1c1712" stroke-width="1.4" opacity="0.55"/><line x1="169.5" y1="150" x2="169.5" y2="456" stroke="#1c1712" stroke-width="1.4" opacity="0.55"/><line x1="178.5" y1="150" x2="178.5" y2="456" stroke="#1c1712" stroke-width="1.4" opacity="0.55"/><line x1="187.5" y1="150" x2="187.5" y2="456" stroke="#1c1712" stroke-width="1.4" opacity="0.55"/><line x1="196.5" y1="150" x2="196.5" y2="456" stroke="#1c1712" stroke-width="1.4" opacity="0.55"/><line x1="205.4" y1="150" x2="205.4" y2="456" stroke="#1c1712" stroke-width="1.4" opacity="0.55"/><rect x="138" y="456" width="90" height="16" rx="3" fill="url(#stone)"/><rect x="1054" y="120" width="86" height="20" rx="3" fill="url(#stone)"/><rect x="1060" y="138" width="74" height="12" fill="url(#stone)"/><rect x="1064" y="148" width="66" height="310" fill="url(#stone)"/><line x1="1074.6" y1="150" x2="1074.6" y2="456" stroke="#1c1712" stroke-width="1.4" opacity="0.55"/><line x1="1083.5" y1="150" x2="1083.5" y2="456" stroke="#1c1712" stroke-width="1.4" opacity="0.55"/><line x1="1092.5" y1="150" x2="1092.5" y2="456" stroke="#1c1712" stroke-width="1.4" opacity="0.55"/><line x1="1101.5" y1="150" x2="1101.5" y2="456" stroke="#1c1712" stroke-width="1.4" opacity="0.55"/><line x1="1110.5" y1="150" x2="1110.5" y2="456" stroke="#1c1712" stroke-width="1.4" opacity="0.55"/><line x1="1119.4" y1="150" x2="1119.4" y2="456" stroke="#1c1712" stroke-width="1.4" opacity="0.55"/><rect x="1052" y="456" width="90" height="16" rx="3" fill="url(#stone)"/><g transform="translate(713.4,431.7) rotate(-6.0)"><ellipse rx="19" ry="6.6" fill="url(#leaf)"/><ellipse rx="19" ry="6.6" fill="none" stroke="#7a5a24" stroke-width="0.6" opacity="0.5"/></g><g transform="translate(739.5,418.9) rotate(-14.5)"><ellipse rx="19" ry="6.6" fill="url(#leaf)"/><ellipse rx="19" ry="6.6" fill="none" stroke="#7a5a24" stroke-width="0.6" opacity="0.5"/></g><g transform="translate(763.3,402.3) rotate(-23.0)"><ellipse rx="19" ry="6.6" fill="url(#leaf)"/><ellipse rx="19" ry="6.6" fill="none" stroke="#7a5a24" stroke-width="0.6" opacity="0.5"/></g><g transform="translate(784.5,382.4) rotate(-31.5)"><ellipse rx="19" ry="6.6" fill="url(#leaf)"/><ellipse rx="19" ry="6.6" fill="none" stroke="#7a5a24" stroke-width="0.6" opacity="0.5"/></g><g transform="translate(802.5,359.6) rotate(-40.0)"><ellipse rx="19" ry="6.6" fill="url(#leaf)"/><ellipse rx="19" ry="6.6" fill="none" stroke="#7a5a24" stroke-width="0.6" opacity="0.5"/></g><g transform="translate(816.9,334.4) rotate(-48.5)"><ellipse rx="19" ry="6.6" fill="url(#leaf)"/><ellipse rx="19" ry="6.6" fill="none" stroke="#7a5a24" stroke-width="0.6" opacity="0.5"/></g><g transform="translate(827.4,307.3) rotate(-57.0)"><ellipse rx="19" ry="6.6" fill="url(#leaf)"/><ellipse rx="19" ry="6.6" fill="none" stroke="#7a5a24" stroke-width="0.6" opacity="0.5"/></g><g transform="translate(833.8,279.0) rotate(-65.5)"><ellipse rx="19" ry="6.6" fill="url(#leaf)"/><ellipse rx="19" ry="6.6" fill="none" stroke="#7a5a24" stroke-width="0.6" opacity="0.5"/></g><g transform="translate(836.0,250.0) rotate(-74.0)"><ellipse rx="19" ry="6.6" fill="url(#leaf)"/><ellipse rx="19" ry="6.6" fill="none" stroke="#7a5a24" stroke-width="0.6" opacity="0.5"/></g><g transform="translate(833.8,221.0) rotate(-82.5)"><ellipse rx="19" ry="6.6" fill="url(#leaf)"/><ellipse rx="19" ry="6.6" fill="none" stroke="#7a5a24" stroke-width="0.6" opacity="0.5"/></g><g transform="translate(827.4,192.7) rotate(-91.0)"><ellipse rx="19" ry="6.6" fill="url(#leaf)"/><ellipse rx="19" ry="6.6" fill="none" stroke="#7a5a24" stroke-width="0.6" opacity="0.5"/></g><g transform="translate(816.9,165.6) rotate(-99.5)"><ellipse rx="19" ry="6.6" fill="url(#leaf)"/><ellipse rx="19" ry="6.6" fill="none" stroke="#7a5a24" stroke-width="0.6" opacity="0.5"/></g><g transform="translate(802.5,140.4) rotate(-108.0)"><ellipse rx="19" ry="6.6" fill="url(#leaf)"/><ellipse rx="19" ry="6.6" fill="none" stroke="#7a5a24" stroke-width="0.6" opacity="0.5"/></g><g transform="translate(784.5,117.6) rotate(-116.5)"><ellipse rx="19" ry="6.6" fill="url(#leaf)"/><ellipse rx="19" ry="6.6" fill="none" stroke="#7a5a24" stroke-width="0.6" opacity="0.5"/></g><g transform="translate(763.3,97.7) rotate(-125.0)"><ellipse rx="19" ry="6.6" fill="url(#leaf)"/><ellipse rx="19" ry="6.6" fill="none" stroke="#7a5a24" stroke-width="0.6" opacity="0.5"/></g><g transform="translate(739.5,81.1) rotate(-133.5)"><ellipse rx="19" ry="6.6" fill="url(#leaf)"/><ellipse rx="19" ry="6.6" fill="none" stroke="#7a5a24" stroke-width="0.6" opacity="0.5"/></g><g transform="translate(713.4,68.3) rotate(-142.0)"><ellipse rx="19" ry="6.6" fill="url(#leaf)"/><ellipse rx="19" ry="6.6" fill="none" stroke="#7a5a24" stroke-width="0.6" opacity="0.5"/></g><g transform="translate(685.8,59.4) rotate(-150.5)"><ellipse rx="19" ry="6.6" fill="url(#leaf)"/><ellipse rx="19" ry="6.6" fill="none" stroke="#7a5a24" stroke-width="0.6" opacity="0.5"/></g><g transform="translate(566.6,431.7) rotate(6.0)"><ellipse rx="19" ry="6.6" fill="url(#leaf)"/><ellipse rx="19" ry="6.6" fill="none" stroke="#7a5a24" stroke-width="0.6" opacity="0.5"/></g><g transform="translate(540.5,418.9) rotate(14.5)"><ellipse rx="19" ry="6.6" fill="url(#leaf)"/><ellipse rx="19" ry="6.6" fill="none" stroke="#7a5a24" stroke-width="0.6" opacity="0.5"/></g><g transform="translate(516.7,402.3) rotate(23.0)"><ellipse rx="19" ry="6.6" fill="url(#leaf)"/><ellipse rx="19" ry="6.6" fill="none" stroke="#7a5a24" stroke-width="0.6" opacity="0.5"/></g><g transform="translate(495.5,382.4) rotate(31.5)"><ellipse rx="19" ry="6.6" fill="url(#leaf)"/><ellipse rx="19" ry="6.6" fill="none" stroke="#7a5a24" stroke-width="0.6" opacity="0.5"/></g><g transform="translate(477.5,359.6) rotate(40.0)"><ellipse rx="19" ry="6.6" fill="url(#leaf)"/><ellipse rx="19" ry="6.6" fill="none" stroke="#7a5a24" stroke-width="0.6" opacity="0.5"/></g><g transform="translate(463.1,334.4) rotate(48.5)"><ellipse rx="19" ry="6.6" fill="url(#leaf)"/><ellipse rx="19" ry="6.6" fill="none" stroke="#7a5a24" stroke-width="0.6" opacity="0.5"/></g><g transform="translate(452.6,307.3) rotate(57.0)"><ellipse rx="19" ry="6.6" fill="url(#leaf)"/><ellipse rx="19" ry="6.6" fill="none" stroke="#7a5a24" stroke-width="0.6" opacity="0.5"/></g><g transform="translate(446.2,279.0) rotate(65.5)"><ellipse rx="19" ry="6.6" fill="url(#leaf)"/><ellipse rx="19" ry="6.6" fill="none" stroke="#7a5a24" stroke-width="0.6" opacity="0.5"/></g><g transform="translate(444.0,250.0) rotate(74.0)"><ellipse rx="19" ry="6.6" fill="url(#leaf)"/><ellipse rx="19" ry="6.6" fill="none" stroke="#7a5a24" stroke-width="0.6" opacity="0.5"/></g><g transform="translate(446.2,221.0) rotate(82.5)"><ellipse rx="19" ry="6.6" fill="url(#leaf)"/><ellipse rx="19" ry="6.6" fill="none" stroke="#7a5a24" stroke-width="0.6" opacity="0.5"/></g><g transform="translate(452.6,192.7) rotate(91.0)"><ellipse rx="19" ry="6.6" fill="url(#leaf)"/><ellipse rx="19" ry="6.6" fill="none" stroke="#7a5a24" stroke-width="0.6" opacity="0.5"/></g><g transform="translate(463.1,165.6) rotate(99.5)"><ellipse rx="19" ry="6.6" fill="url(#leaf)"/><ellipse rx="19" ry="6.6" fill="none" stroke="#7a5a24" stroke-width="0.6" opacity="0.5"/></g><g transform="translate(477.5,140.4) rotate(108.0)"><ellipse rx="19" ry="6.6" fill="url(#leaf)"/><ellipse rx="19" ry="6.6" fill="none" stroke="#7a5a24" stroke-width="0.6" opacity="0.5"/></g><g transform="translate(495.5,117.6) rotate(116.5)"><ellipse rx="19" ry="6.6" fill="url(#leaf)"/><ellipse rx="19" ry="6.6" fill="none" stroke="#7a5a24" stroke-width="0.6" opacity="0.5"/></g><g transform="translate(516.7,97.7) rotate(125.0)"><ellipse rx="19" ry="6.6" fill="url(#leaf)"/><ellipse rx="19" ry="6.6" fill="none" stroke="#7a5a24" stroke-width="0.6" opacity="0.5"/></g><g transform="translate(540.5,81.1) rotate(133.5)"><ellipse rx="19" ry="6.6" fill="url(#leaf)"/><ellipse rx="19" ry="6.6" fill="none" stroke="#7a5a24" stroke-width="0.6" opacity="0.5"/></g><g transform="translate(566.6,68.3) rotate(142.0)"><ellipse rx="19" ry="6.6" fill="url(#leaf)"/><ellipse rx="19" ry="6.6" fill="none" stroke="#7a5a24" stroke-width="0.6" opacity="0.5"/></g><g transform="translate(594.2,59.4) rotate(150.5)"><ellipse rx="19" ry="6.6" fill="url(#leaf)"/><ellipse rx="19" ry="6.6" fill="none" stroke="#7a5a24" stroke-width="0.6" opacity="0.5"/></g><circle cx="640" cy="52" r="9" fill="url(#gold)"/><path d="M632,56 q-26,10 -40,30 l14,4 q16,-18 32,-24 z" fill="url(#gold)" opacity="0.9"/><path d="M648,56 q26,10 40,30 l-14,4 q-16,-18 -32,-24 z" fill="url(#gold)" opacity="0.9"/><polygon points="629,308 651,308 647,450 633,450" fill="url(#handle)"/><ellipse cx="640" cy="450" rx="9" ry="4" fill="#6f4d1c"/><ellipse cx="640" cy="300" rx="46" ry="13" fill="url(#gold)"/><ellipse cx="640" cy="298" rx="38" ry="8" fill="#3a2408"/><ellipse cx="640" cy="230" rx="120" ry="150" fill="url(#glow)" opacity="0.7"/><circle cx="618.1" cy="289.1" r="6.8" fill="rgb(92,17,8)" opacity="0.56"/><circle cx="640.1" cy="287.5" r="6.8" fill="rgb(95,17,8)" opacity="0.63"/><circle cx="620.4" cy="285.7" r="6.7" fill="rgb(99,18,8)" opacity="0.67"/><circle cx="590.4" cy="281.4" r="6.6" fill="rgb(108,19,8)" opacity="0.69"/><circle cx="685.4" cy="280.0" r="6.5" fill="rgb(111,20,8)" opacity="0.68"/><circle cx="609.9" cy="278.9" r="6.5" fill="rgb(114,20,8)" opacity="0.69"/><circle cx="586.2" cy="278.2" r="6.5" fill="rgb(115,20,8)" opacity="0.62"/><circle cx="666.5" cy="276.9" r="6.4" fill="rgb(118,21,8)" opacity="0.74"/><circle cx="645.2" cy="276.7" r="6.4" fill="rgb(118,21,8)" opacity="0.57"/><circle cx="591.9" cy="275.4" r="6.4" fill="rgb(121,21,8)" opacity="0.64"/><circle cx="687.9" cy="274.4" r="6.4" fill="rgb(123,22,8)" opacity="0.75"/><circle cx="697.5" cy="272.9" r="6.3" fill="rgb(127,22,8)" opacity="0.84"/><circle cx="648.7" cy="272.9" r="6.3" fill="rgb(127,22,8)" opacity="0.71"/><circle cx="612.8" cy="272.8" r="6.3" fill="rgb(127,22,8)" opacity="0.58"/><circle cx="626.6" cy="265.6" r="6.1" fill="rgb(142,25,8)" opacity="0.56"/><circle cx="623.9" cy="265.5" r="6.1" fill="rgb(143,25,8)" opacity="0.67"/><circle cx="614.0" cy="264.9" r="6.1" fill="rgb(144,25,8)" opacity="0.57"/><circle cx="586.5" cy="262.0" r="6.0" fill="rgb(150,26,8)" opacity="0.90"/><circle cx="633.1" cy="261.7" r="6.0" fill="rgb(150,26,8)" opacity="0.89"/><circle cx="689.2" cy="260.7" r="5.9" fill="rgb(153,28,8)" opacity="1.00"/><circle cx="597.9" cy="259.7" r="5.9" fill="rgb(154,29,8)" opacity="0.96"/><circle cx="610.4" cy="259.2" r="5.9" fill="rgb(155,30,8)" opacity="0.73"/><circle cx="587.1" cy="259.1" r="5.9" fill="rgb(156,30,8)" opacity="0.88"/><circle cx="593.4" cy="257.4" r="5.8" fill="rgb(159,33,9)" opacity="0.75"/><circle cx="694.2" cy="256.1" r="5.8" fill="rgb(161,35,9)" opacity="0.99"/><circle cx="592.4" cy="255.9" r="5.8" fill="rgb(162,35,9)" opacity="0.69"/><circle cx="599.9" cy="254.4" r="5.7" fill="rgb(165,37,9)" opacity="0.65"/><circle cx="641.6" cy="254.2" r="5.7" fill="rgb(165,38,9)" opacity="0.57"/><circle cx="672.0" cy="253.7" r="5.7" fill="rgb(166,38,9)" opacity="0.85"/><circle cx="633.7" cy="252.2" r="5.7" fill="rgb(169,41,9)" opacity="0.78"/><circle cx="639.1" cy="249.9" r="5.6" fill="rgb(173,44,10)" opacity="0.88"/><circle cx="575.1" cy="247.6" r="5.5" fill="rgb(178,48,10)" opacity="0.91"/><circle cx="601.9" cy="244.8" r="5.4" fill="rgb(183,52,10)" opacity="0.83"/><circle cx="642.7" cy="244.0" r="5.4" fill="rgb(185,53,10)" opacity="0.55"/><circle cx="595.8" cy="242.4" r="5.4" fill="rgb(188,55,11)" opacity="0.70"/><circle cx="703.4" cy="240.3" r="5.3" fill="rgb(192,59,11)" opacity="0.73"/><circle cx="658.9" cy="239.5" r="5.3" fill="rgb(193,60,11)" opacity="0.98"/><circle cx="653.0" cy="237.7" r="5.2" fill="rgb(197,62,11)" opacity="0.79"/><circle cx="639.3" cy="237.6" r="5.2" fill="rgb(197,63,11)" opacity="0.82"/><circle cx="588.0" cy="236.6" r="5.2" fill="rgb(199,64,11)" opacity="0.62"/><circle cx="620.2" cy="233.9" r="5.1" fill="rgb(204,68,12)" opacity="0.71"/><circle cx="595.2" cy="233.3" r="5.1" fill="rgb(205,69,12)" opacity="0.59"/><circle cx="593.3" cy="232.7" r="5.1" fill="rgb(206,70,12)" opacity="0.96"/><circle cx="629.8" cy="232.6" r="5.1" fill="rgb(207,70,12)" opacity="0.61"/><circle cx="622.7" cy="232.2" r="5.1" fill="rgb(207,70,12)" opacity="0.63"/><circle cx="573.6" cy="231.9" r="5.0" fill="rgb(208,71,12)" opacity="0.74"/><circle cx="703.2" cy="231.8" r="5.0" fill="rgb(208,71,12)" opacity="0.99"/><circle cx="585.2" cy="231.7" r="5.0" fill="rgb(208,71,12)" opacity="0.73"/><circle cx="590.5" cy="231.0" r="5.0" fill="rgb(210,72,12)" opacity="0.79"/><circle cx="605.7" cy="228.4" r="4.9" fill="rgb(215,76,12)" opacity="0.68"/><circle cx="624.9" cy="227.9" r="4.9" fill="rgb(216,77,12)" opacity="0.85"/><circle cx="605.5" cy="226.3" r="4.9" fill="rgb(219,79,13)" opacity="0.81"/><circle cx="674.3" cy="224.1" r="4.8" fill="rgb(223,83,13)" opacity="0.68"/><circle cx="620.9" cy="223.3" r="4.8" fill="rgb(224,84,13)" opacity="0.55"/><circle cx="593.9" cy="220.7" r="4.7" fill="rgb(229,88,13)" opacity="0.84"/><circle cx="603.4" cy="219.7" r="4.7" fill="rgb(231,89,13)" opacity="0.92"/><circle cx="600.0" cy="218.0" r="4.6" fill="rgb(235,92,14)" opacity="0.69"/><circle cx="646.2" cy="218.0" r="4.6" fill="rgb(235,92,14)" opacity="0.97"/><circle cx="687.8" cy="214.6" r="4.5" fill="rgb(240,97,14)" opacity="0.98"/><circle cx="603.8" cy="213.5" r="4.5" fill="rgb(241,99,15)" opacity="0.65"/><circle cx="647.3" cy="212.7" r="4.4" fill="rgb(241,100,16)" opacity="0.98"/><circle cx="635.7" cy="210.6" r="4.4" fill="rgb(242,103,17)" opacity="0.78"/><circle cx="626.3" cy="208.8" r="4.3" fill="rgb(242,106,19)" opacity="0.60"/><circle cx="620.2" cy="206.7" r="4.3" fill="rgb(243,109,20)" opacity="0.57"/><circle cx="686.8" cy="203.7" r="4.2" fill="rgb(244,114,23)" opacity="0.92"/><circle cx="676.7" cy="203.3" r="4.2" fill="rgb(244,115,23)" opacity="0.61"/><circle cx="588.6" cy="201.8" r="4.1" fill="rgb(245,117,24)" opacity="0.59"/><circle cx="583.1" cy="200.7" r="4.1" fill="rgb(245,119,25)" opacity="0.70"/><circle cx="600.2" cy="197.5" r="4.0" fill="rgb(247,124,27)" opacity="0.75"/><circle cx="636.4" cy="196.5" r="3.9" fill="rgb(247,125,28)" opacity="0.59"/><circle cx="685.3" cy="195.0" r="3.9" fill="rgb(248,128,29)" opacity="0.60"/><circle cx="685.8" cy="194.5" r="3.9" fill="rgb(248,128,30)" opacity="0.86"/><circle cx="690.1" cy="193.0" r="3.8" fill="rgb(248,131,31)" opacity="0.92"/><circle cx="604.8" cy="191.0" r="3.8" fill="rgb(249,134,32)" opacity="0.71"/><circle cx="623.7" cy="188.2" r="3.7" fill="rgb(250,138,34)" opacity="0.56"/><circle cx="590.5" cy="187.2" r="3.7" fill="rgb(251,140,35)" opacity="0.75"/><circle cx="593.3" cy="184.1" r="3.6" fill="rgb(252,145,38)" opacity="0.79"/><circle cx="614.2" cy="183.5" r="3.5" fill="rgb(252,146,38)" opacity="0.98"/><circle cx="603.6" cy="183.3" r="3.5" fill="rgb(252,146,38)" opacity="0.56"/><circle cx="674.1" cy="183.1" r="3.5" fill="rgb(252,146,38)" opacity="0.92"/><circle cx="664.5" cy="182.2" r="3.5" fill="rgb(253,148,39)" opacity="0.60"/><circle cx="622.2" cy="182.0" r="3.5" fill="rgb(253,148,39)" opacity="0.78"/><circle cx="678.8" cy="181.6" r="3.5" fill="rgb(253,149,39)" opacity="0.93"/><circle cx="615.3" cy="181.4" r="3.5" fill="rgb(253,149,40)" opacity="0.67"/><circle cx="656.2" cy="179.8" r="3.4" fill="rgb(253,151,41)" opacity="0.59"/><circle cx="640.5" cy="179.2" r="3.4" fill="rgb(254,152,41)" opacity="0.94"/><circle cx="629.2" cy="178.8" r="3.4" fill="rgb(254,153,42)" opacity="0.99"/><circle cx="673.3" cy="177.9" r="3.4" fill="rgb(254,154,42)" opacity="0.74"/><circle cx="634.3" cy="177.5" r="3.4" fill="rgb(254,155,43)" opacity="0.68"/><circle cx="645.1" cy="176.2" r="3.3" fill="rgb(255,157,44)" opacity="0.76"/><circle cx="638.9" cy="173.4" r="3.2" fill="rgb(255,163,54)" opacity="0.78"/><circle cx="639.5" cy="171.6" r="3.2" fill="rgb(255,167,61)" opacity="0.58"/><circle cx="605.5" cy="170.1" r="3.1" fill="rgb(255,171,68)" opacity="0.58"/><circle cx="629.1" cy="169.4" r="3.1" fill="rgb(255,172,71)" opacity="0.80"/><circle cx="605.1" cy="168.7" r="3.1" fill="rgb(255,174,74)" opacity="0.93"/><circle cx="674.6" cy="168.1" r="3.1" fill="rgb(255,175,76)" opacity="0.92"/><circle cx="660.1" cy="167.2" r="3.0" fill="rgb(255,177,80)" opacity="0.59"/><circle cx="667.4" cy="166.1" r="3.0" fill="rgb(255,180,85)" opacity="0.90"/><circle cx="608.4" cy="165.6" r="3.0" fill="rgb(255,181,87)" opacity="0.87"/><circle cx="656.9" cy="165.0" r="3.0" fill="rgb(255,182,90)" opacity="0.81"/><circle cx="658.1" cy="164.8" r="3.0" fill="rgb(255,183,91)" opacity="0.95"/><circle cx="609.2" cy="163.8" r="2.9" fill="rgb(255,185,95)" opacity="0.95"/><circle cx="634.2" cy="163.2" r="2.9" fill="rgb(255,186,98)" opacity="0.69"/><circle cx="669.8" cy="162.1" r="2.9" fill="rgb(255,189,103)" opacity="0.70"/><circle cx="639.9" cy="161.7" r="2.9" fill="rgb(255,190,104)" opacity="0.83"/><circle cx="667.7" cy="161.4" r="2.8" fill="rgb(255,190,106)" opacity="0.75"/><circle cx="636.0" cy="161.3" r="2.8" fill="rgb(255,191,106)" opacity="0.79"/><circle cx="612.0" cy="157.0" r="2.7" fill="rgb(255,200,125)" opacity="0.80"/><circle cx="627.6" cy="155.9" r="2.7" fill="rgb(255,203,129)" opacity="0.99"/><circle cx="642.0" cy="155.4" r="2.7" fill="rgb(255,204,132)" opacity="0.64"/><circle cx="638.2" cy="152.9" r="2.6" fill="rgb(255,210,142)" opacity="0.63"/><circle cx="647.3" cy="152.9" r="2.6" fill="rgb(255,210,143)" opacity="0.87"/><circle cx="659.4" cy="151.5" r="2.5" fill="rgb(255,213,148)" opacity="0.75"/><circle cx="641.0" cy="149.8" r="2.5" fill="rgb(255,217,156)" opacity="0.90"/><circle cx="639.8" cy="149.7" r="2.5" fill="rgb(255,217,156)" opacity="0.80"/><circle cx="629.3" cy="148.7" r="2.5" fill="rgb(255,219,160)" opacity="0.61"/><circle cx="656.1" cy="148.6" r="2.5" fill="rgb(255,219,161)" opacity="0.91"/><circle cx="632.5" cy="147.3" r="2.4" fill="rgb(255,222,167)" opacity="0.91"/><circle cx="647.8" cy="146.5" r="2.4" fill="rgb(255,224,170)" opacity="0.66"/><circle cx="623.0" cy="145.5" r="2.4" fill="rgb(255,227,174)" opacity="0.94"/><circle cx="625.9" cy="144.8" r="2.3" fill="rgb(255,228,177)" opacity="0.92"/><circle cx="627.9" cy="143.4" r="2.3" fill="rgb(255,231,183)" opacity="0.81"/><circle cx="648.5" cy="143.1" r="2.3" fill="rgb(255,232,185)" opacity="0.65"/><circle cx="637.3" cy="143.0" r="2.3" fill="rgb(255,232,185)" opacity="0.77"/><circle cx="629.6" cy="142.0" r="2.2" fill="rgb(255,234,190)" opacity="0.66"/><circle cx="628.1" cy="141.6" r="2.2" fill="rgb(255,235,191)" opacity="0.56"/><circle cx="646.8" cy="141.2" r="2.2" fill="rgb(255,236,193)" opacity="0.84"/><circle cx="636.2" cy="140.8" r="2.2" fill="rgb(255,237,195)" opacity="0.78"/><circle cx="654.2" cy="140.1" r="2.2" fill="rgb(255,239,198)" opacity="0.76"/><circle cx="651.7" cy="139.9" r="2.2" fill="rgb(255,239,199)" opacity="0.85"/><circle cx="633.8" cy="136.7" r="2.1" fill="rgb(255,240,200)" opacity="0.74"/><circle cx="616.8" cy="93.3" r="2.1" fill="rgb(255,219,161)" opacity="0.70"/><circle cx="628.9" cy="135.7" r="2.0" fill="rgb(255,240,200)" opacity="0.75"/><circle cx="642.9" cy="135.2" r="2.0" fill="rgb(255,240,200)" opacity="0.62"/><circle cx="635.2" cy="135.1" r="2.0" fill="rgb(255,240,200)" opacity="0.86"/><circle cx="651.1" cy="134.9" r="2.0" fill="rgb(255,240,200)" opacity="0.67"/><circle cx="637.2" cy="134.6" r="2.0" fill="rgb(255,240,200)" opacity="0.70"/><circle cx="633.6" cy="110.6" r="2.0" fill="rgb(255,219,161)" opacity="0.52"/><circle cx="629.9" cy="81.2" r="2.0" fill="rgb(255,219,161)" opacity="0.79"/><circle cx="657.6" cy="73.0" r="2.0" fill="rgb(255,219,161)" opacity="0.72"/><circle cx="647.1" cy="131.6" r="1.9" fill="rgb(255,240,200)" opacity="0.77"/><circle cx="637.2" cy="130.3" r="1.9" fill="rgb(255,240,200)" opacity="0.76"/><circle cx="662.1" cy="84.1" r="1.9" fill="rgb(255,219,161)" opacity="0.52"/><circle cx="651.9" cy="92.7" r="1.9" fill="rgb(255,219,161)" opacity="0.43"/><circle cx="640.0" cy="129.2" r="1.8" fill="rgb(255,240,200)" opacity="0.79"/><circle cx="657.1" cy="79.3" r="1.8" fill="rgb(255,219,161)" opacity="0.43"/><circle cx="658.0" cy="89.9" r="1.8" fill="rgb(255,219,161)" opacity="0.67"/><circle cx="639.1" cy="127.0" r="1.8" fill="rgb(255,240,200)" opacity="0.94"/><circle cx="647.0" cy="126.6" r="1.8" fill="rgb(255,240,200)" opacity="0.98"/><circle cx="670.9" cy="77.4" r="1.7" fill="rgb(255,219,161)" opacity="0.76"/><circle cx="642.8" cy="125.2" r="1.7" fill="rgb(255,240,200)" opacity="0.63"/><circle cx="640.4" cy="124.7" r="1.7" fill="rgb(255,240,200)" opacity="0.62"/><circle cx="641.2" cy="121.9" r="1.6" fill="rgb(255,240,200)" opacity="0.79"/><circle cx="639.2" cy="121.8" r="1.6" fill="rgb(255,240,200)" opacity="0.73"/><circle cx="651.4" cy="111.0" r="1.6" fill="rgb(255,219,161)" opacity="0.73"/><circle cx="642.3" cy="120.9" r="1.6" fill="rgb(255,240,200)" opacity="0.86"/><circle cx="641.0" cy="120.7" r="1.6" fill="rgb(255,240,200)" opacity="0.71"/><circle cx="641.8" cy="93.1" r="1.6" fill="rgb(255,219,161)" opacity="0.67"/><circle cx="638.3" cy="120.1" r="1.6" fill="rgb(255,240,200)" opacity="0.88"/><circle cx="641.8" cy="120.0" r="1.6" fill="rgb(255,240,200)" opacity="0.91"/><circle cx="641.4" cy="120.0" r="1.6" fill="rgb(255,240,200)" opacity="0.99"/><circle cx="647.2" cy="92.0" r="1.5" fill="rgb(255,219,161)" opacity="0.45"/><circle cx="662.2" cy="83.6" r="1.2" fill="rgb(255,219,161)" opacity="0.41"/><circle cx="640.6" cy="111.3" r="1.0" fill="rgb(255,219,161)" opacity="0.73"/><circle cx="633.0" cy="80.9" r="0.9" fill="rgb(255,219,161)" opacity="0.51"/><circle cx="617.4" cy="89.4" r="0.9" fill="rgb(255,219,161)" opacity="0.51"/><text x="640" y="536" text-anchor="middle" font-family="Georgia, 'Times New Roman', serif" font-size="66" font-weight="bold" letter-spacing="14" fill="url(#gold)" stroke="#160b04" stroke-width="0.7">PROMETHEUS</text><text x="640" y="572" text-anchor="middle" font-family="Georgia, serif" font-style="italic" font-size="19" letter-spacing="1.5" fill="#cf9d63">Give an LLM a language, and it wields the world that language describes.</text><text x="640" y="600" text-anchor="middle" font-family="ui-monospace, monospace" font-size="14" letter-spacing="5" fill="#8a6a44">PYRE &#183; PRISM &#183; A FRAMEWORK FOR LLM-AUTHORED LANGUAGES</text></svg>