<svg xmlns="http://www.w3.org/2000/svg" xmlns:xlink="http://www.w3.org/1999/xlink" viewBox="0 0 1280 620" width="1280" height="620"><defs>
  <radialGradient id="bg" cx="50%" cy="42%" r="72%">
    <stop offset="0%" stop-color="#141019"/><stop offset="55%" stop-color="#0a0710"/><stop offset="100%" stop-color="#050409"/>
  </radialGradient>
  <radialGradient id="parch" cx="46%" cy="40%" r="70%">
    <stop offset="0%" stop-color="#efe4cb"/><stop offset="70%" stop-color="#e3d3b0"/><stop offset="100%" stop-color="#c9b488"/>
  </radialGradient>
  <linearGradient id="gold" x1="0" y1="0" x2="0" y2="1">
    <stop offset="0%" stop-color="#ffe9b0"/><stop offset="48%" stop-color="#e9b45c"/><stop offset="100%" stop-color="#b07d2e"/>
  </linearGradient>
  <linearGradient id="leaf" x1="0" y1="0" x2="1" y2="0">
    <stop offset="0%" stop-color="#d9ad57"/><stop offset="100%" stop-color="#9c7328"/>
  </linearGradient>
  <linearGradient id="stone" x1="0" y1="0" x2="1" y2="0">
    <stop offset="0%" stop-color="#4b4034"/><stop offset="35%" stop-color="#2c251d"/><stop offset="100%" stop-color="#181410"/>
  </linearGradient>
  <linearGradient id="fire" x1="0" y1="1" x2="0" y2="0">
    <stop offset="0%" stop-color="#b52a06"/><stop offset="50%" stop-color="#f0721a"/><stop offset="100%" stop-color="#ffd873"/>
  </linearGradient>
  <radialGradient id="glow" cx="50%" cy="50%" r="50%">
    <stop offset="0%" stop-color="#ff7a28" stop-opacity="0.5"/><stop offset="100%" stop-color="#c23a08" stop-opacity="0"/>
  </radialGradient>
</defs><rect width="1280" height="620" fill="url(#bg)"/><ellipse cx="640" cy="245" rx="330" ry="290" fill="url(#glow)"/><rect x="140" y="120" width="86" height="20" rx="3" fill="url(#stone)"/><rect x="146" y="138" width="74" height="12" fill="url(#stone)"/><rect x="150" y="148" width="66" height="310" fill="url(#stone)"/><line x1="160.6" y1="150" x2="160.6" y2="456" stroke="#1c1712" stroke-width="1.4" opacity="0.55"/><line x1="169.5" y1="150" x2="169.5" y2="456" stroke="#1c1712" stroke-width="1.4" opacity="0.55"/><line x1="178.5" y1="150" x2="178.5" y2="456" stroke="#1c1712" stroke-width="1.4" opacity="0.55"/><line x1="187.5" y1="150" x2="187.5" y2="456" stroke="#1c1712" stroke-width="1.4" opacity="0.55"/><line x1="196.5" y1="150" x2="196.5" y2="456" stroke="#1c1712" stroke-width="1.4" opacity="0.55"/><line x1="205.4" y1="150" x2="205.4" y2="456" stroke="#1c1712" stroke-width="1.4" opacity="0.55"/><rect x="138" y="456" width="90" height="16" rx="3" fill="url(#stone)"/><rect x="1054" y="120" width="86" height="20" rx="3" fill="url(#stone)"/><rect x="1060" y="138" width="74" height="12" fill="url(#stone)"/><rect x="1064" y="148" width="66" height="310" fill="url(#stone)"/><line x1="1074.6" y1="150" x2="1074.6" y2="456" stroke="#1c1712" stroke-width="1.4" opacity="0.55"/><line x1="1083.5" y1="150" x2="1083.5" y2="456" stroke="#1c1712" stroke-width="1.4" opacity="0.55"/><line x1="1092.5" y1="150" x2="1092.5" y2="456" stroke="#1c1712" stroke-width="1.4" opacity="0.55"/><line x1="1101.5" y1="150" x2="1101.5" y2="456" stroke="#1c1712" stroke-width="1.4" opacity="0.55"/><line x1="1110.5" y1="150" x2="1110.5" y2="456" stroke="#1c1712" stroke-width="1.4" opacity="0.55"/><line x1="1119.4" y1="150" x2="1119.4" y2="456" stroke="#1c1712" stroke-width="1.4" opacity="0.55"/><rect x="1052" y="456" width="90" height="16" rx="3" fill="url(#stone)"/><g transform="translate(713.4,431.7) rotate(-6.0)"><ellipse rx="19" ry="6.6" fill="url(#leaf)"/><ellipse rx="19" ry="6.6" fill="none" stroke="#7a5a24" stroke-width="0.6" opacity="0.5"/></g><g transform="translate(739.5,418.9) rotate(-14.5)"><ellipse rx="19" ry="6.6" fill="url(#leaf)"/><ellipse rx="19" ry="6.6" fill="none" stroke="#7a5a24" stroke-width="0.6" opacity="0.5"/></g><g transform="translate(763.3,402.3) rotate(-23.0)"><ellipse rx="19" ry="6.6" fill="url(#leaf)"/><ellipse rx="19" ry="6.6" fill="none" stroke="#7a5a24" stroke-width="0.6" opacity="0.5"/></g><g transform="translate(784.5,382.4) rotate(-31.5)"><ellipse rx="19" ry="6.6" fill="url(#leaf)"/><ellipse rx="19" ry="6.6" fill="none" stroke="#7a5a24" stroke-width="0.6" opacity="0.5"/></g><g transform="translate(802.5,359.6) rotate(-40.0)"><ellipse rx="19" ry="6.6" fill="url(#leaf)"/><ellipse rx="19" ry="6.6" fill="none" stroke="#7a5a24" stroke-width="0.6" opacity="0.5"/></g><g transform="translate(816.9,334.4) rotate(-48.5)"><ellipse rx="19" ry="6.6" fill="url(#leaf)"/><ellipse rx="19" ry="6.6" fill="none" stroke="#7a5a24" stroke-width="0.6" opacity="0.5"/></g><g transform="translate(827.4,307.3) rotate(-57.0)"><ellipse rx="19" ry="6.6" fill="url(#leaf)"/><ellipse rx="19" ry="6.6" fill="none" stroke="#7a5a24" stroke-width="0.6" opacity="0.5"/></g><g transform="translate(833.8,279.0) rotate(-65.5)"><ellipse rx="19" ry="6.6" fill="url(#leaf)"/><ellipse rx="19" ry="6.6" fill="none" stroke="#7a5a24" stroke-width="0.6" opacity="0.5"/></g><g transform="translate(836.0,250.0) rotate(-74.0)"><ellipse rx="19" ry="6.6" fill="url(#leaf)"/><ellipse rx="19" ry="6.6" fill="none" stroke="#7a5a24" stroke-width="0.6" opacity="0.5"/></g><g transform="translate(833.8,221.0) rotate(-82.5)"><ellipse rx="19" ry="6.6" fill="url(#leaf)"/><ellipse rx="19" ry="6.6" fill="none" stroke="#7a5a24" stroke-width="0.6" opacity="0.5"/></g><g transform="translate(827.4,192.7) rotate(-91.0)"><ellipse rx="19" ry="6.6" fill="url(#leaf)"/><ellipse rx="19" ry="6.6" fill="none" stroke="#7a5a24" stroke-width="0.6" opacity="0.5"/></g><g transform="translate(816.9,165.6) rotate(-99.5)"><ellipse rx="19" ry="6.6" fill="url(#leaf)"/><ellipse rx="19" ry="6.6" fill="none" stroke="#7a5a24" stroke-width="0.6" opacity="0.5"/></g><g transform="translate(802.5,140.4) rotate(-108.0)"><ellipse rx="19" ry="6.6" fill="url(#leaf)"/><ellipse rx="19" ry="6.6" fill="none" stroke="#7a5a24" stroke-width="0.6" opacity="0.5"/></g><g transform="translate(784.5,117.6) rotate(-116.5)"><ellipse rx="19" ry="6.6" fill="url(#leaf)"/><ellipse rx="19" ry="6.6" fill="none" stroke="#7a5a24" stroke-width="0.6" opacity="0.5"/></g><g transform="translate(763.3,97.7) rotate(-125.0)"><ellipse rx="19" ry="6.6" fill="url(#leaf)"/><ellipse rx="19" ry="6.6" fill="none" stroke="#7a5a24" stroke-width="0.6" opacity="0.5"/></g><g transform="translate(739.5,81.1) rotate(-133.5)"><ellipse rx="19" ry="6.6" fill="url(#leaf)"/><ellipse rx="19" ry="6.6" fill="none" stroke="#7a5a24" stroke-width="0.6" opacity="0.5"/></g><g transform="translate(713.4,68.3) rotate(-142.0)"><ellipse rx="19" ry="6.6" fill="url(#leaf)"/><ellipse rx="19" ry="6.6" fill="none" stroke="#7a5a24" stroke-width="0.6" opacity="0.5"/></g><g transform="translate(685.8,59.4) rotate(-150.5)"><ellipse rx="19" ry="6.6" fill="url(#leaf)"/><ellipse rx="19" ry="6.6" fill="none" stroke="#7a5a24" stroke-width="0.6" opacity="0.5"/></g><g transform="translate(566.6,431.7) rotate(6.0)"><ellipse rx="19" ry="6.6" fill="url(#leaf)"/><ellipse rx="19" ry="6.6" fill="none" stroke="#7a5a24" stroke-width="0.6" opacity="0.5"/></g><g transform="translate(540.5,418.9) rotate(14.5)"><ellipse rx="19" ry="6.6" fill="url(#leaf)"/><ellipse rx="19" ry="6.6" fill="none" stroke="#7a5a24" stroke-width="0.6" opacity="0.5"/></g><g transform="translate(516.7,402.3) rotate(23.0)"><ellipse rx="19" ry="6.6" fill="url(#leaf)"/><ellipse rx="19" ry="6.6" fill="none" stroke="#7a5a24" stroke-width="0.6" opacity="0.5"/></g><g transform="translate(495.5,382.4) rotate(31.5)"><ellipse rx="19" ry="6.6" fill="url(#leaf)"/><ellipse rx="19" ry="6.6" fill="none" stroke="#7a5a24" stroke-width="0.6" opacity="0.5"/></g><g transform="translate(477.5,359.6) rotate(40.0)"><ellipse rx="19" ry="6.6" fill="url(#leaf)"/><ellipse rx="19" ry="6.6" fill="none" stroke="#7a5a24" stroke-width="0.6" opacity="0.5"/></g><g transform="translate(463.1,334.4) rotate(48.5)"><ellipse rx="19" ry="6.6" fill="url(#leaf)"/><ellipse rx="19" ry="6.6" fill="none" stroke="#7a5a24" stroke-width="0.6" opacity="0.5"/></g><g transform="translate(452.6,307.3) rotate(57.0)"><ellipse rx="19" ry="6.6" fill="url(#leaf)"/><ellipse rx="19" ry="6.6" fill="none" stroke="#7a5a24" stroke-width="0.6" opacity="0.5"/></g><g transform="translate(446.2,279.0) rotate(65.5)"><ellipse rx="19" ry="6.6" fill="url(#leaf)"/><ellipse rx="19" ry="6.6" fill="none" stroke="#7a5a24" stroke-width="0.6" opacity="0.5"/></g><g transform="translate(444.0,250.0) rotate(74.0)"><ellipse rx="19" ry="6.6" fill="url(#leaf)"/><ellipse rx="19" ry="6.6" fill="none" stroke="#7a5a24" stroke-width="0.6" opacity="0.5"/></g><g transform="translate(446.2,221.0) rotate(82.5)"><ellipse rx="19" ry="6.6" fill="url(#leaf)"/><ellipse rx="19" ry="6.6" fill="none" stroke="#7a5a24" stroke-width="0.6" opacity="0.5"/></g><g transform="translate(452.6,192.7) rotate(91.0)"><ellipse rx="19" ry="6.6" fill="url(#leaf)"/><ellipse rx="19" ry="6.6" fill="none" stroke="#7a5a24" stroke-width="0.6" opacity="0.5"/></g><g transform="translate(463.1,165.6) rotate(99.5)"><ellipse rx="19" ry="6.6" fill="url(#leaf)"/><ellipse rx="19" ry="6.6" fill="none" stroke="#7a5a24" stroke-width="0.6" opacity="0.5"/></g><g transform="translate(477.5,140.4) rotate(108.0)"><ellipse rx="19" ry="6.6" fill="url(#leaf)"/><ellipse rx="19" ry="6.6" fill="none" stroke="#7a5a24" stroke-width="0.6" opacity="0.5"/></g><g transform="translate(495.5,117.6) rotate(116.5)"><ellipse rx="19" ry="6.6" fill="url(#leaf)"/><ellipse rx="19" ry="6.6" fill="none" stroke="#7a5a24" stroke-width="0.6" opacity="0.5"/></g><g transform="translate(516.7,97.7) rotate(125.0)"><ellipse rx="19" ry="6.6" fill="url(#leaf)"/><ellipse rx="19" ry="6.6" fill="none" stroke="#7a5a24" stroke-width="0.6" opacity="0.5"/></g><g transform="translate(540.5,81.1) rotate(133.5)"><ellipse rx="19" ry="6.6" fill="url(#leaf)"/><ellipse rx="19" ry="6.6" fill="none" stroke="#7a5a24" stroke-width="0.6" opacity="0.5"/></g><g transform="translate(566.6,68.3) rotate(142.0)"><ellipse rx="19" ry="6.6" fill="url(#leaf)"/><ellipse rx="19" ry="6.6" fill="none" stroke="#7a5a24" stroke-width="0.6" opacity="0.5"/></g><g transform="translate(594.2,59.4) rotate(150.5)"><ellipse rx="19" ry="6.6" fill="url(#leaf)"/><ellipse rx="19" ry="6.6" fill="none" stroke="#7a5a24" stroke-width="0.6" opacity="0.5"/></g><circle cx="640" cy="52" r="9" fill="url(#gold)"/><path d="M632,56 q-26,10 -40,30 l14,4 q16,-18 32,-24 z" fill="url(#gold)" opacity="0.9"/><path d="M648,56 q26,10 40,30 l-14,4 q-16,-18 -32,-24 z" fill="url(#gold)" opacity="0.9"/><clipPath id="plate"><circle cx="640" cy="250" r="164"/></clipPath><g clip-path="url(#plate)"><circle cx="640" cy="250" r="164" fill="url(#parch)"/><path d="M616.1,213.7 L715.3,220.3 L615.9,218.9 Z" fill="#1a140e" opacity="0.16"/><path d="M616.0,216.7 L762.7,246.9 L615.7,218.4 Z" fill="#1a140e" opacity="0.09"/><path d="M616.0,217.4 L710.9,254.0 L615.0,220.2 Z" fill="#1a140e" opacity="0.09"/><path d="M615.4,219.1 L746.9,293.9 L614.5,220.7 Z" fill="#1a140e" opacity="0.09"/><path d="M615.9,218.9 L697.5,286.7 L612.7,223.0 Z" fill="#1a140e" opacity="0.16"/><path d="M614.1,221.3 L707.2,323.5 L612.8,222.5 Z" fill="#1a140e" opacity="0.09"/><path d="M613.7,221.8 L665.5,302.1 L611.2,223.5 Z" fill="#1a140e" opacity="0.09"/><path d="M612.2,222.9 L676.9,365.7 L610.5,223.6 Z" fill="#1a140e" opacity="0.09"/><path d="M612.7,223.0 L637.2,319.8 L607.7,224.4 Z" fill="#1a140e" opacity="0.16"/><path d="M609.8,223.8 L625.6,365.3 L608.0,224.1 Z" fill="#1a140e" opacity="0.09"/><path d="M609.2,224.1 L603.2,336.4 L606.2,223.9 Z" fill="#1a140e" opacity="0.09"/><path d="M607.3,224.0 L577.5,369.0 L605.6,223.7 Z" fill="#1a140e" opacity="0.09"/><path d="M607.7,224.4 L567.2,326.4 L602.8,222.6 Z" fill="#1a140e" opacity="0.16"/><path d="M604.9,223.4 L531.6,352.2 L603.3,222.5 Z" fill="#1a140e" opacity="0.09"/><path d="M604.2,223.2 L537.2,305.7 L601.9,221.3 Z" fill="#1a140e" opacity="0.09"/><path d="M602.7,222.1 L499.0,316.6 L601.5,220.8 Z" fill="#1a140e" opacity="0.09"/><path d="M602.8,222.6 L513.0,279.4 L599.9,218.3 Z" fill="#1a140e" opacity="0.16"/><path d="M601.1,220.2 L457.6,285.2 L600.4,218.5 Z" fill="#1a140e" opacity="0.09"/><path d="M600.7,219.6 L499.9,246.4 L599.9,216.7 Z" fill="#1a140e" opacity="0.09"/><path d="M600.2,217.8 L446.6,235.0 L599.9,216.0 Z" fill="#1a140e" opacity="0.09"/><path d="M599.9,218.3 L493.2,211.4 L600.1,213.1 Z" fill="#1a140e" opacity="0.16"/><path d="M600.0,215.3 L464.6,187.4 L600.3,213.6 Z" fill="#1a140e" opacity="0.09"/><path d="M600.0,214.6 L498.8,175.6 L601.0,211.8 Z" fill="#1a140e" opacity="0.09"/><path d="M600.6,212.9 L469.4,138.3 L601.5,211.3 Z" fill="#1a140e" opacity="0.09"/><path d="M600.1,213.1 L522.8,148.8 L603.3,209.0 Z" fill="#1a140e" opacity="0.16"/><path d="M601.9,210.7 L509.4,109.2 L603.2,209.5 Z" fill="#1a140e" opacity="0.09"/><path d="M602.3,210.2 L542.4,117.7 L604.8,208.5 Z" fill="#1a140e" opacity="0.09"/><path d="M603.8,209.1 L542.8,74.2 L605.5,208.4 Z" fill="#1a140e" opacity="0.09"/><path d="M603.3,209.0 L576.7,104.6 L608.3,207.6 Z" fill="#1a140e" opacity="0.16"/><path d="M606.2,208.2 L588.6,51.3 L608.0,207.9 Z" fill="#1a140e" opacity="0.09"/><path d="M606.8,207.9 L612.6,100.5 L609.8,208.1 Z" fill="#1a140e" opacity="0.09"/><path d="M608.7,208.0 L640.7,52.4 L610.4,208.3 Z" fill="#1a140e" opacity="0.09"/><path d="M608.3,207.6 L646.2,112.7 L613.2,209.4 Z" fill="#1a140e" opacity="0.16"/><path d="M611.1,208.6 L688.2,73.0 L612.7,209.5 Z" fill="#1a140e" opacity="0.09"/><path d="M611.8,208.8 L676.8,128.9 L614.1,210.7 Z" fill="#1a140e" opacity="0.09"/><path d="M613.3,209.9 L730.9,102.6 L614.5,211.2 Z" fill="#1a140e" opacity="0.09"/><path d="M613.2,209.4 L706.5,150.3 L616.1,213.7 Z" fill="#1a140e" opacity="0.16"/><path d="M614.9,211.8 L741.5,154.6 L615.6,213.5 Z" fill="#1a140e" opacity="0.09"/><path d="M615.3,212.4 L709.7,187.4 L616.1,215.3 Z" fill="#1a140e" opacity="0.09"/><path d="M615.8,214.2 L756.9,198.5 L616.1,216.0 Z" fill="#1a140e" opacity="0.09"/><line x1="358" y1="296" x2="476" y2="414" stroke="#1a140e" stroke-width="1" opacity="0.12"/><line x1="367" y1="296" x2="485" y2="414" stroke="#1a140e" stroke-width="1" opacity="0.12"/><line x1="376" y1="296" x2="494" y2="414" stroke="#1a140e" stroke-width="1" opacity="0.12"/><line x1="385" y1="296" x2="503" y2="414" stroke="#1a140e" stroke-width="1" opacity="0.12"/><line x1="394" y1="296" x2="512" y2="414" stroke="#1a140e" stroke-width="1" opacity="0.12"/><line x1="403" y1="296" x2="521" y2="414" stroke="#1a140e" stroke-width="1" opacity="0.12"/><line x1="412" y1="296" x2="530" y2="414" stroke="#1a140e" stroke-width="1" opacity="0.12"/><line x1="421" y1="296" x2="539" y2="414" stroke="#1a140e" stroke-width="1" opacity="0.12"/><line x1="430" y1="296" x2="548" y2="414" stroke="#1a140e" stroke-width="1" opacity="0.12"/><line x1="439" y1="296" x2="557" y2="414" stroke="#1a140e" stroke-width="1" opacity="0.12"/><line x1="448" y1="296" x2="566" y2="414" stroke="#1a140e" stroke-width="1" opacity="0.12"/><line x1="457" y1="296" x2="575" y2="414" stroke="#1a140e" stroke-width="1" opacity="0.12"/><line x1="466" y1="296" x2="584" y2="414" stroke="#1a140e" stroke-width="1" opacity="0.12"/><line x1="475" y1="296" x2="593" y2="414" stroke="#1a140e" stroke-width="1" opacity="0.12"/><line x1="484" y1="296" x2="602" y2="414" stroke="#1a140e" stroke-width="1" opacity="0.12"/><line x1="493" y1="296" x2="611" y2="414" stroke="#1a140e" stroke-width="1" opacity="0.12"/><line x1="502" y1="296" x2="620" y2="414" stroke="#1a140e" stroke-width="1" opacity="0.12"/><line x1="511" y1="296" x2="629" y2="414" stroke="#1a140e" stroke-width="1" opacity="0.12"/><line x1="520" y1="296" x2="638" y2="414" stroke="#1a140e" stroke-width="1" opacity="0.12"/><line x1="529" y1="296" x2="647" y2="414" stroke="#1a140e" stroke-width="1" opacity="0.12"/><line x1="538" y1="296" x2="656" y2="414" stroke="#1a140e" stroke-width="1" opacity="0.12"/><line x1="547" y1="296" x2="665" y2="414" stroke="#1a140e" stroke-width="1" opacity="0.12"/><line x1="556" y1="296" x2="674" y2="414" stroke="#1a140e" stroke-width="1" opacity="0.12"/><line x1="565" y1="296" x2="683" y2="414" stroke="#1a140e" stroke-width="1" opacity="0.12"/><line x1="574" y1="296" x2="692" y2="414" stroke="#1a140e" stroke-width="1" opacity="0.12"/><line x1="583" y1="296" x2="701" y2="414" stroke="#1a140e" stroke-width="1" opacity="0.12"/><line x1="592" y1="296" x2="710" y2="414" stroke="#1a140e" stroke-width="1" opacity="0.12"/><line x1="601" y1="296" x2="719" y2="414" stroke="#1a140e" stroke-width="1" opacity="0.12"/><line x1="610" y1="296" x2="728" y2="414" stroke="#1a140e" stroke-width="1" opacity="0.12"/><line x1="619" y1="296" x2="737" y2="414" stroke="#1a140e" stroke-width="1" opacity="0.12"/><line x1="628" y1="296" x2="746" y2="414" stroke="#1a140e" stroke-width="1" opacity="0.12"/><line x1="637" y1="296" x2="755" y2="414" stroke="#1a140e" stroke-width="1" opacity="0.12"/><line x1="646" y1="296" x2="764" y2="414" stroke="#1a140e" stroke-width="1" opacity="0.12"/><line x1="655" y1="296" x2="773" y2="414" stroke="#1a140e" stroke-width="1" opacity="0.12"/><line x1="664" y1="296" x2="782" y2="414" stroke="#1a140e" stroke-width="1" opacity="0.12"/><line x1="673" y1="296" x2="791" y2="414" stroke="#1a140e" stroke-width="1" opacity="0.12"/><line x1="682" y1="296" x2="800" y2="414" stroke="#1a140e" stroke-width="1" opacity="0.12"/><line x1="691" y1="296" x2="809" y2="414" stroke="#1a140e" stroke-width="1" opacity="0.12"/><line x1="700" y1="296" x2="818" y2="414" stroke="#1a140e" stroke-width="1" opacity="0.12"/><line x1="709" y1="296" x2="827" y2="414" stroke="#1a140e" stroke-width="1" opacity="0.12"/><line x1="718" y1="296" x2="836" y2="414" stroke="#1a140e" stroke-width="1" opacity="0.12"/><line x1="727" y1="296" x2="845" y2="414" stroke="#1a140e" stroke-width="1" opacity="0.12"/><line x1="736" y1="296" x2="854" y2="414" stroke="#1a140e" stroke-width="1" opacity="0.12"/><line x1="745" y1="296" x2="863" y2="414" stroke="#1a140e" stroke-width="1" opacity="0.12"/><line x1="754" y1="296" x2="872" y2="414" stroke="#1a140e" stroke-width="1" opacity="0.12"/><line x1="763" y1="296" x2="881" y2="414" stroke="#1a140e" stroke-width="1" opacity="0.12"/><line x1="772" y1="296" x2="890" y2="414" stroke="#1a140e" stroke-width="1" opacity="0.12"/><line x1="781" y1="296" x2="899" y2="414" stroke="#1a140e" stroke-width="1" opacity="0.12"/><line x1="790" y1="296" x2="908" y2="414" stroke="#1a140e" stroke-width="1" opacity="0.12"/><line x1="799" y1="296" x2="917" y2="414" stroke="#1a140e" stroke-width="1" opacity="0.12"/><circle cx="706" cy="208" r="78" fill="none" stroke="#1a140e" stroke-width="1.2" opacity="0.28"/><line x1="661" y1="217" x2="651" y2="223" stroke="#1a140e" stroke-width="1.4" opacity="0.8"/><line x1="661" y1="217" x2="658" y2="204" stroke="#1a140e" stroke-width="1.4" opacity="0.8"/><line x1="744" y1="190" x2="748" y2="212" stroke="#1a140e" stroke-width="1.4" opacity="0.8"/><line x1="744" y1="190" x2="770" y2="200" stroke="#1a140e" stroke-width="1.4" opacity="0.8"/><line x1="658" y1="204" x2="651" y2="223" stroke="#1a140e" stroke-width="1.4" opacity="0.8"/><line x1="724" y1="239" x2="718" y2="231" stroke="#1a140e" stroke-width="1.4" opacity="0.8"/><line x1="724" y1="239" x2="719" y2="222" stroke="#1a140e" stroke-width="1.4" opacity="0.8"/><line x1="667" y1="173" x2="678" y2="174" stroke="#1a140e" stroke-width="1.4" opacity="0.8"/><line x1="667" y1="173" x2="658" y2="204" stroke="#1a140e" stroke-width="1.4" opacity="0.8"/><line x1="736" y1="222" x2="748" y2="212" stroke="#1a140e" stroke-width="1.4" opacity="0.8"/><line x1="736" y1="222" x2="719" y2="222" stroke="#1a140e" stroke-width="1.4" opacity="0.8"/><line x1="755" y1="231" x2="748" y2="212" stroke="#1a140e" stroke-width="1.4" opacity="0.8"/><line x1="755" y1="231" x2="736" y2="222" stroke="#1a140e" stroke-width="1.4" opacity="0.8"/><line x1="697" y1="188" x2="681" y2="202" stroke="#1a140e" stroke-width="1.4" opacity="0.8"/><line x1="697" y1="188" x2="678" y2="174" stroke="#1a140e" stroke-width="1.4" opacity="0.8"/><line x1="770" y1="200" x2="748" y2="212" stroke="#1a140e" stroke-width="1.4" opacity="0.8"/><line x1="719" y1="222" x2="718" y2="231" stroke="#1a140e" stroke-width="1.4" opacity="0.8"/><line x1="681" y1="202" x2="658" y2="204" stroke="#1a140e" stroke-width="1.4" opacity="0.8"/><line x1="651" y1="223" x2="648" y2="240" stroke="#1a140e" stroke-width="1.4" opacity="0.8"/><line x1="648" y1="240" x2="661" y2="217" stroke="#1a140e" stroke-width="1.4" opacity="0.8"/><line x1="676" y1="250" x2="648" y2="240" stroke="#1a140e" stroke-width="1.4" opacity="0.8"/><line x1="676" y1="250" x2="661" y2="217" stroke="#1a140e" stroke-width="1.4" opacity="0.8"/><circle cx="661" cy="217" r="6.5" fill="#e9dcc1"/><circle cx="661" cy="217" r="6.5" fill="none" stroke="#1a140e" stroke-width="1.6"/><line x1="657" y1="215" x2="665" y2="215" stroke="#1a140e" stroke-width="0.8" opacity="0.6"/><circle cx="744" cy="190" r="6.5" fill="#e9dcc1"/><circle cx="744" cy="190" r="6.5" fill="none" stroke="#1a140e" stroke-width="1.6"/><line x1="740" y1="188" x2="748" y2="188" stroke="#1a140e" stroke-width="0.8" opacity="0.6"/><circle cx="658" cy="204" r="6.5" fill="#e9dcc1"/><circle cx="658" cy="204" r="6.5" fill="none" stroke="#1a140e" stroke-width="1.6"/><line x1="654" y1="202" x2="662" y2="202" stroke="#1a140e" stroke-width="0.8" opacity="0.6"/><circle cx="724" cy="239" r="6.5" fill="#e9dcc1"/><circle cx="724" cy="239" r="6.5" fill="none" stroke="#1a140e" stroke-width="1.6"/><line x1="720" y1="237" x2="728" y2="237" stroke="#1a140e" stroke-width="0.8" opacity="0.6"/><circle cx="667" cy="173" r="6.5" fill="#e9dcc1"/><circle cx="667" cy="173" r="6.5" fill="none" stroke="#1a140e" stroke-width="1.6"/><line x1="663" y1="171" x2="671" y2="171" stroke="#1a140e" stroke-width="0.8" opacity="0.6"/><circle cx="736" cy="222" r="6.5" fill="#e9dcc1"/><circle cx="736" cy="222" r="6.5" fill="none" stroke="#1a140e" stroke-width="1.6"/><line x1="732" y1="220" x2="740" y2="220" stroke="#1a140e" stroke-width="0.8" opacity="0.6"/><circle cx="755" cy="231" r="6.5" fill="#e9dcc1"/><circle cx="755" cy="231" r="6.5" fill="none" stroke="#1a140e" stroke-width="1.6"/><line x1="751" y1="229" x2="759" y2="229" stroke="#1a140e" stroke-width="0.8" opacity="0.6"/><circle cx="697" cy="188" r="6.5" fill="#e9dcc1"/><circle cx="697" cy="188" r="6.5" fill="none" stroke="#1a140e" stroke-width="1.6"/><line x1="693" y1="186" x2="701" y2="186" stroke="#1a140e" stroke-width="0.8" opacity="0.6"/><circle cx="770" cy="200" r="6.5" fill="#e9dcc1"/><circle cx="770" cy="200" r="6.5" fill="none" stroke="#1a140e" stroke-width="1.6"/><line x1="766" y1="198" x2="774" y2="198" stroke="#1a140e" stroke-width="0.8" opacity="0.6"/><circle cx="678" cy="174" r="6.5" fill="#e9dcc1"/><circle cx="678" cy="174" r="6.5" fill="none" stroke="#1a140e" stroke-width="1.6"/><line x1="674" y1="172" x2="682" y2="172" stroke="#1a140e" stroke-width="0.8" opacity="0.6"/><circle cx="719" cy="222" r="6.5" fill="#e9dcc1"/><circle cx="719" cy="222" r="6.5" fill="none" stroke="#1a140e" stroke-width="1.6"/><line x1="715" y1="220" x2="723" y2="220" stroke="#1a140e" stroke-width="0.8" opacity="0.6"/><circle cx="681" cy="202" r="6.5" fill="#e9dcc1"/><circle cx="681" cy="202" r="6.5" fill="none" stroke="#1a140e" stroke-width="1.6"/><line x1="677" y1="200" x2="685" y2="200" stroke="#1a140e" stroke-width="0.8" opacity="0.6"/><circle cx="718" cy="231" r="6.5" fill="#e9dcc1"/><circle cx="718" cy="231" r="6.5" fill="none" stroke="#1a140e" stroke-width="1.6"/><line x1="714" y1="229" x2="722" y2="229" stroke="#1a140e" stroke-width="0.8" opacity="0.6"/><circle cx="748" cy="212" r="6.5" fill="#e9dcc1"/><circle cx="748" cy="212" r="6.5" fill="none" stroke="#1a140e" stroke-width="1.6"/><line x1="744" y1="210" x2="752" y2="210" stroke="#1a140e" stroke-width="0.8" opacity="0.6"/><circle cx="651" cy="223" r="6.5" fill="#e9dcc1"/><circle cx="651" cy="223" r="6.5" fill="none" stroke="#1a140e" stroke-width="1.6"/><line x1="647" y1="221" x2="655" y2="221" stroke="#1a140e" stroke-width="0.8" opacity="0.6"/><circle cx="648" cy="240" r="12" fill="url(#fire)"/><circle cx="648" cy="240" r="12" fill="none" stroke="#1a140e" stroke-width="1.5"/><circle cx="676" cy="250" r="6.5" fill="#e9dcc1"/><circle cx="676" cy="250" r="6.5" fill="none" stroke="#1a140e" stroke-width="1.6"/><line x1="672" y1="248" x2="680" y2="248" stroke="#1a140e" stroke-width="0.8" opacity="0.6"/><path d="M538,290 C544,366 676,366 682,290 L668,290 A13,16 0 0 0 642,290 A13,16 0 0 0 616,290 A13,16 0 0 0 590,290 A13,16 0 0 0 564,290 L538,290 Z" fill="#1a140e"/><path d="M540,308 q-24,-6 -32,12 q14,12 34,4 z" fill="#1a140e"/><path d="M556,356 L518,414 L576,414 L616,362 Z" fill="#1a140e"/><path d="M552,320 C592,342 640,342 668,316" stroke="#e9dcc1" stroke-width="1.5" fill="none" opacity="0.5"/><line x1="564" y1="282" x2="564" y2="308" stroke="#e9dcc1" stroke-width="1.2" opacity="0.45"/><line x1="590" y1="282" x2="590" y2="308" stroke="#e9dcc1" stroke-width="1.2" opacity="0.45"/><line x1="616" y1="282" x2="616" y2="308" stroke="#e9dcc1" stroke-width="1.2" opacity="0.45"/><line x1="642" y1="282" x2="642" y2="308" stroke="#e9dcc1" stroke-width="1.2" opacity="0.45"/><path d="M608,212 C635,240 633,278 611,296 C581,284 581,248 600,228 C602,244 611,248 613,236 C617,226 610,218 608,212 Z" fill="url(#fire)"/><path d="M608,212 C635,240 633,278 611,296" stroke="#7a2f08" stroke-width="1.4" fill="none" opacity="0.7"/><ellipse cx="608" cy="256" rx="6.5" ry="14" fill="#fff3d0" opacity="0.85"/><path d="M608,216 Q628,200 648,240" stroke="url(#fire)" stroke-width="2.4" fill="none"/><circle cx="608" cy="216" r="4" fill="#fff3d0"/></g><circle cx="640" cy="250" r="164" fill="none" stroke="#1a140e" stroke-width="3"/><circle cx="640" cy="250" r="157" fill="none" stroke="#1a140e" stroke-width="1"/><line x1="798.0" y1="250.0" x2="803.0" y2="250.0" stroke="#1a140e" stroke-width="1"/><line x1="797.1" y1="266.5" x2="802.1" y2="267.0" stroke="#1a140e" stroke-width="1"/><line x1="794.5" y1="282.9" x2="799.4" y2="283.9" stroke="#1a140e" stroke-width="1"/><line x1="790.3" y1="298.8" x2="795.0" y2="300.4" stroke="#1a140e" stroke-width="1"/><line x1="784.3" y1="314.3" x2="788.9" y2="316.3" stroke="#1a140e" stroke-width="1"/><line x1="776.8" y1="329.0" x2="781.2" y2="331.5" stroke="#1a140e" stroke-width="1"/><line x1="767.8" y1="342.9" x2="771.9" y2="345.8" stroke="#1a140e" stroke-width="1"/><line x1="757.4" y1="355.7" x2="761.1" y2="359.1" stroke="#1a140e" stroke-width="1"/><line x1="745.7" y1="367.4" x2="749.1" y2="371.1" stroke="#1a140e" stroke-width="1"/><line x1="732.9" y1="377.8" x2="735.8" y2="381.9" stroke="#1a140e" stroke-width="1"/><line x1="719.0" y1="386.8" x2="721.5" y2="391.2" stroke="#1a140e" stroke-width="1"/><line x1="704.3" y1="394.3" x2="706.3" y2="398.9" stroke="#1a140e" stroke-width="1"/><line x1="688.8" y1="400.3" x2="690.4" y2="405.0" stroke="#1a140e" stroke-width="1"/><line x1="672.9" y1="404.5" x2="673.9" y2="409.4" stroke="#1a140e" stroke-width="1"/><line x1="656.5" y1="407.1" x2="657.0" y2="412.1" stroke="#1a140e" stroke-width="1"/><line x1="640.0" y1="408.0" x2="640.0" y2="413.0" stroke="#1a140e" stroke-width="1"/><line x1="623.5" y1="407.1" x2="623.0" y2="412.1" stroke="#1a140e" stroke-width="1"/><line x1="607.1" y1="404.5" x2="606.1" y2="409.4" stroke="#1a140e" stroke-width="1"/><line x1="591.2" y1="400.3" x2="589.6" y2="405.0" stroke="#1a140e" stroke-width="1"/><line x1="575.7" y1="394.3" x2="573.7" y2="398.9" stroke="#1a140e" stroke-width="1"/><line x1="561.0" y1="386.8" x2="558.5" y2="391.2" stroke="#1a140e" stroke-width="1"/><line x1="547.1" y1="377.8" x2="544.2" y2="381.9" stroke="#1a140e" stroke-width="1"/><line x1="534.3" y1="367.4" x2="530.9" y2="371.1" stroke="#1a140e" stroke-width="1"/><line x1="522.6" y1="355.7" x2="518.9" y2="359.1" stroke="#1a140e" stroke-width="1"/><line x1="512.2" y1="342.9" x2="508.1" y2="345.8" stroke="#1a140e" stroke-width="1"/><line x1="503.2" y1="329.0" x2="498.8" y2="331.5" stroke="#1a140e" stroke-width="1"/><line x1="495.7" y1="314.3" x2="491.1" y2="316.3" stroke="#1a140e" stroke-width="1"/><line x1="489.7" y1="298.8" x2="485.0" y2="300.4" stroke="#1a140e" stroke-width="1"/><line x1="485.5" y1="282.9" x2="480.6" y2="283.9" stroke="#1a140e" stroke-width="1"/><line x1="482.9" y1="266.5" x2="477.9" y2="267.0" stroke="#1a140e" stroke-width="1"/><line x1="482.0" y1="250.0" x2="477.0" y2="250.0" stroke="#1a140e" stroke-width="1"/><line x1="482.9" y1="233.5" x2="477.9" y2="233.0" stroke="#1a140e" stroke-width="1"/><line x1="485.5" y1="217.1" x2="480.6" y2="216.1" stroke="#1a140e" stroke-width="1"/><line x1="489.7" y1="201.2" x2="485.0" y2="199.6" stroke="#1a140e" stroke-width="1"/><line x1="495.7" y1="185.7" x2="491.1" y2="183.7" stroke="#1a140e" stroke-width="1"/><line x1="503.2" y1="171.0" x2="498.8" y2="168.5" stroke="#1a140e" stroke-width="1"/><line x1="512.2" y1="157.1" x2="508.1" y2="154.2" stroke="#1a140e" stroke-width="1"/><line x1="522.6" y1="144.3" x2="518.9" y2="140.9" stroke="#1a140e" stroke-width="1"/><line x1="534.3" y1="132.6" x2="530.9" y2="128.9" stroke="#1a140e" stroke-width="1"/><line x1="547.1" y1="122.2" x2="544.2" y2="118.1" stroke="#1a140e" stroke-width="1"/><line x1="561.0" y1="113.2" x2="558.5" y2="108.8" stroke="#1a140e" stroke-width="1"/><line x1="575.7" y1="105.7" x2="573.7" y2="101.1" stroke="#1a140e" stroke-width="1"/><line x1="591.2" y1="99.7" x2="589.6" y2="95.0" stroke="#1a140e" stroke-width="1"/><line x1="607.1" y1="95.5" x2="606.1" y2="90.6" stroke="#1a140e" stroke-width="1"/><line x1="623.5" y1="92.9" x2="623.0" y2="87.9" stroke="#1a140e" stroke-width="1"/><line x1="640.0" y1="92.0" x2="640.0" y2="87.0" stroke="#1a140e" stroke-width="1"/><line x1="656.5" y1="92.9" x2="657.0" y2="87.9" stroke="#1a140e" stroke-width="1"/><line x1="672.9" y1="95.5" x2="673.9" y2="90.6" stroke="#1a140e" stroke-width="1"/><line x1="688.8" y1="99.7" x2="690.4" y2="95.0" stroke="#1a140e" stroke-width="1"/><line x1="704.3" y1="105.7" x2="706.3" y2="101.1" stroke="#1a140e" stroke-width="1"/><line x1="719.0" y1="113.2" x2="721.5" y2="108.8" stroke="#1a140e" stroke-width="1"/><line x1="732.9" y1="122.2" x2="735.8" y2="118.1" stroke="#1a140e" stroke-width="1"/><line x1="745.7" y1="132.6" x2="749.1" y2="128.9" stroke="#1a140e" stroke-width="1"/><line x1="757.4" y1="144.3" x2="761.1" y2="140.9" stroke="#1a140e" stroke-width="1"/><line x1="767.8" y1="157.1" x2="771.9" y2="154.2" stroke="#1a140e" stroke-width="1"/><line x1="776.8" y1="171.0" x2="781.2" y2="168.5" stroke="#1a140e" stroke-width="1"/><line x1="784.3" y1="185.7" x2="788.9" y2="183.7" stroke="#1a140e" stroke-width="1"/><line x1="790.3" y1="201.2" x2="795.0" y2="199.6" stroke="#1a140e" stroke-width="1"/><line x1="794.5" y1="217.1" x2="799.4" y2="216.1" stroke="#1a140e" stroke-width="1"/><line x1="797.1" y1="233.5" x2="802.1" y2="233.0" stroke="#1a140e" stroke-width="1"/><path id="arcTop" d="M498,250 A142,142 0 0 1 782,250" fill="none"/><text font-family="Georgia, serif" font-size="17" letter-spacing="7" fill="#1a140e" opacity="0.85"><textPath xlink:href="#arcTop" startOffset="50%" text-anchor="middle">&#183; IGNEM &#183; DEDIT &#183;</textPath></text><text x="640" y="536" text-anchor="middle" font-family="Georgia, 'Times New Roman', serif" font-size="66" font-weight="bold" letter-spacing="14" fill="url(#gold)" stroke="#160b04" stroke-width="0.7">PROMETHEUS</text><text x="640" y="572" text-anchor="middle" font-family="Georgia, serif" font-style="italic" font-size="19" letter-spacing="1.5" fill="#cf9d63">Give an LLM a language, and it wields the world that language describes.</text><text x="640" y="600" text-anchor="middle" font-family="ui-monospace, monospace" font-size="14" letter-spacing="5" fill="#8a6a44">PYRE &#183; PRISM &#183; LYRA &#183; A FRAMEWORK FOR LLM-AUTHORED LANGUAGES</text></svg>